0
SECTION
2
ENTITIES
0
POLYLINE
8
VALOY_SUR_60V
66
1
70
1
0
VERTEX
8
VALOY_SUR_60V
10
1098006.4629
20
877043.9280
30
0.0
0
VERTEX
8
VALOY_SUR_60V
10
1098016.0941
20
877064.8774
30
0.0
0
VERTEX
8
VALOY_SUR_60V
10
1098018.0416
20
877079.4726
30
0.0
0
VERTEX
8
VALOY_SUR_60V
10
1098001.2353
20
877082.1935
30
0.0
0
VERTEX
8
VALOY_SUR_60V
10
1097958.7140
20
877089.0774
30
0.0
0
VERTEX
8
VALOY_SUR_60V
10
1097915.7934
20
877096.0260
30
0.0
0
VERTEX
8
VALOY_SUR_60V
10
1097872.9586
20
877102.9607
30
0.0
0
VERTEX
8
VALOY_SUR_60V
10
1097867.6034
20
877096.7114
30
0.0
0
VERTEX
8
VALOY_SUR_60V
10
1097849.1522
20
877069.6223
30
0.0
0
VERTEX
8
VALOY_SUR_60V
10
1097831.8278
20
877037.0259
30
0.0
0
VERTEX
8
VALOY_SUR_60V
10
1097821.1489
20
877019.7400
30
0.0
0
VERTEX
8
VALOY_SUR_60V
10
1097821.2710
20
876991.5280
30
0.0
0
VERTEX
8
VALOY_SUR_60V
10
1097823.3350
20
876964.5223
30
0.0
0
VERTEX
8
VALOY_SUR_60V
10
1097815.4707
20
876955.5597
30
0.0
0
VERTEX
8
VALOY_SUR_60V
10
1097797.6013
20
876945.3994
30
0.0
0
VERTEX
8
VALOY_SUR_60V
10
1097783.4175
20
876925.4042
30
0.0
0
VERTEX
8
VALOY_SUR_60V
10
1097790.8458
20
876901.8383
30
0.0
0
VERTEX
8
VALOY_SUR_60V
10
1097774.6472
20
876869.2469
30
0.0
0
VERTEX
8
VALOY_SUR_60V
10
1097786.0725
20
876852.4680
30
0.0
0
VERTEX
8
VALOY_SUR_60V
10
1097782.4014
20
876839.1796
30
0.0
0
VERTEX
8
VALOY_SUR_60V
10
1097783.4436
20
876827.4215
30
0.0
0
VERTEX
8
VALOY_SUR_60V
10
1097761.6193
20
876809.6654
30
0.0
0
VERTEX
8
VALOY_SUR_60V
10
1097754.4706
20
876793.0919
30
0.0
0
VERTEX
8
VALOY_SUR_60V
10
1097734.4074
20
876791.0114
30
0.0
0
VERTEX
8
VALOY_SUR_60V
10
1097709.5691
20
876769.0679
30
0.0
0
VERTEX
8
VALOY_SUR_60V
10
1097698.4567
20
876762.7088
30
0.0
0
VERTEX
8
VALOY_SUR_60V
10
1097693.9443
20
876751.2136
30
0.0
0
VERTEX
8
VALOY_SUR_60V
10
1097700.2375
20
876734.7723
30
0.0
0
VERTEX
8
VALOY_SUR_60V
10
1097687.5082
20
876715.4545
30
0.0
0
VERTEX
8
VALOY_SUR_60V
10
1097691.1899
20
876697.4219
30
0.0
0
VERTEX
8
VALOY_SUR_60V
10
1097680.4385
20
876683.5922
30
0.0
0
VERTEX
8
VALOY_SUR_60V
10
1097683.8458
20
876673.1056
30
0.0
0
VERTEX
8
VALOY_SUR_60V
10
1097706.4367
20
876672.8085
30
0.0
0
VERTEX
8
VALOY_SUR_60V
10
1097725.0929
20
876677.4153
30
0.0
0
VERTEX
8
VALOY_SUR_60V
10
1097736.3425
20
876680.0203
30
0.0
0
VERTEX
8
VALOY_SUR_60V
10
1097772.2897
20
876694.5536
30
0.0
0
VERTEX
8
VALOY_SUR_60V
10
1097784.5500
20
876703.3191
30
0.0
0
VERTEX
8
VALOY_SUR_60V
10
1097798.9028
20
876729.2188
30
0.0
0
VERTEX
8
VALOY_SUR_60V
10
1097804.1878
20
876740.9252
30
0.0
0
VERTEX
8
VALOY_SUR_60V
10
1097813.7462
20
876749.1494
30
0.0
0
VERTEX
8
VALOY_SUR_60V
10
1097829.6876
20
876789.4628
30
0.0
0
VERTEX
8
VALOY_SUR_60V
10
1097840.4076
20
876805.4371
30
0.0
0
VERTEX
8
VALOY_SUR_60V
10
1097852.6423
20
876818.9684
30
0.0
0
VERTEX
8
VALOY_SUR_60V
10
1097866.4074
20
876832.4095
30
0.0
0
VERTEX
8
VALOY_SUR_60V
10
1097881.8155
20
876848.8441
30
0.0
0
VERTEX
8
VALOY_SUR_60V
10
1097914.9570
20
876846.4258
30
0.0
0
VERTEX
8
VALOY_SUR_60V
10
1097940.1055
20
876843.0777
30
0.0
0
VERTEX
8
VALOY_SUR_60V
10
1097961.9820
20
876854.5482
30
0.0
0
VERTEX
8
VALOY_SUR_60V
10
1097970.2232
20
876862.3030
30
0.0
0
VERTEX
8
VALOY_SUR_60V
10
1097980.6786
20
876879.6352
30
0.0
0
VERTEX
8
VALOY_SUR_60V
10
1097988.7235
20
876883.3367
30
0.0
0
VERTEX
8
VALOY_SUR_60V
10
1098016.8989
20
876886.0620
30
0.0
0
VERTEX
8
VALOY_SUR_60V
10
1098029.7071
20
876892.9091
30
0.0
0
VERTEX
8
VALOY_SUR_60V
10
1098033.0512
20
876918.5044
30
0.0
0
VERTEX
8
VALOY_SUR_60V
10
1098020.9466
20
876951.3492
30
0.0
0
VERTEX
8
VALOY_SUR_60V
10
1097999.6507
20
876981.4520
30
0.0
0
VERTEX
8
VALOY_SUR_60V
10
1097994.5838
20
876985.6544
30
0.0
0
VERTEX
8
VALOY_SUR_60V
10
1097991.3914
20
876985.2898
30
0.0
0
VERTEX
8
VALOY_SUR_60V
10
1097977.3025
20
876989.1653
30
0.0
0
VERTEX
8
VALOY_SUR_60V
10
1097975.1128
20
877005.8093
30
0.0
0
SEQEND
0
POLYLINE
8
VALOY_NORTE_50V
66
1
70
1
0
VERTEX
8
VALOY_NORTE_50V
10
1098098.7877
20
877181.0153
30
0.0
0
VERTEX
8
VALOY_NORTE_50V
10
1098132.6851
20
877217.2982
30
0.0
0
VERTEX
8
VALOY_NORTE_50V
10
1098116.3616
20
877224.1722
30
0.0
0
VERTEX
8
VALOY_NORTE_50V
10
1098094.0278
20
877235.4523
30
0.0
0
VERTEX
8
VALOY_NORTE_50V
10
1098058.0643
20
877250.5109
30
0.0
0
VERTEX
8
VALOY_NORTE_50V
10
1098046.2516
20
877246.6242
30
0.0
0
VERTEX
8
VALOY_NORTE_50V
10
1098032.2219
20
877236.1470
30
0.0
0
VERTEX
8
VALOY_NORTE_50V
10
1098029.6465
20
877243.7750
30
0.0
0
VERTEX
8
VALOY_NORTE_50V
10
1098013.2966
20
877252.5796
30
0.0
0
VERTEX
8
VALOY_NORTE_50V
10
1098002.4220
20
877262.8530
30
0.0
0
VERTEX
8
VALOY_NORTE_50V
10
1097988.8987
20
877276.4278
30
0.0
0
VERTEX
8
VALOY_NORTE_50V
10
1097982.7963
20
877281.5711
30
0.0
0
VERTEX
8
VALOY_NORTE_50V
10
1097982.2483
20
877281.4517
30
0.0
0
VERTEX
8
VALOY_NORTE_50V
10
1097947.5653
20
877265.7275
30
0.0
0
VERTEX
8
VALOY_NORTE_50V
10
1097910.4959
20
877246.3091
30
0.0
0
VERTEX
8
VALOY_NORTE_50V
10
1097887.1580
20
877238.6219
30
0.0
0
VERTEX
8
VALOY_NORTE_50V
10
1097860.7786
20
877234.7310
30
0.0
0
VERTEX
8
VALOY_NORTE_50V
10
1097829.7390
20
877225.0936
30
0.0
0
VERTEX
8
VALOY_NORTE_50V
10
1097811.7120
20
877220.5784
30
0.0
0
VERTEX
8
VALOY_NORTE_50V
10
1097776.5199
20
877215.8379
30
0.0
0
VERTEX
8
VALOY_NORTE_50V
10
1097770.9154
20
877214.4565
30
0.0
0
VERTEX
8
VALOY_NORTE_50V
10
1097751.0799
20
877201.0891
30
0.0
0
VERTEX
8
VALOY_NORTE_50V
10
1097721.1701
20
877164.1250
30
0.0
0
VERTEX
8
VALOY_NORTE_50V
10
1097727.4347
20
877115.9877
30
0.0
0
VERTEX
8
VALOY_NORTE_50V
10
1097727.1254
20
877079.3916
30
0.0
0
VERTEX
8
VALOY_NORTE_50V
10
1097720.4021
20
877034.7349
30
0.0
0
VERTEX
8
VALOY_NORTE_50V
10
1097724.0334
20
876989.8002
30
0.0
0
VERTEX
8
VALOY_NORTE_50V
10
1097729.7171
20
876975.1751
30
0.0
0
VERTEX
8
VALOY_NORTE_50V
10
1097735.4118
20
876961.2346
30
0.0
0
VERTEX
8
VALOY_NORTE_50V
10
1097744.6661
20
876947.1036
30
0.0
0
VERTEX
8
VALOY_NORTE_50V
10
1097769.5838
20
876929.1949
30
0.0
0
VERTEX
8
VALOY_NORTE_50V
10
1097783.4175
20
876925.4042
30
0.0
0
VERTEX
8
VALOY_NORTE_50V
10
1097797.6013
20
876945.3994
30
0.0
0
VERTEX
8
VALOY_NORTE_50V
10
1097815.4707
20
876955.5597
30
0.0
0
VERTEX
8
VALOY_NORTE_50V
10
1097823.3350
20
876964.5223
30
0.0
0
VERTEX
8
VALOY_NORTE_50V
10
1097821.2710
20
876991.5280
30
0.0
0
VERTEX
8
VALOY_NORTE_50V
10
1097821.1489
20
877019.7400
30
0.0
0
VERTEX
8
VALOY_NORTE_50V
10
1097831.8278
20
877037.0259
30
0.0
0
VERTEX
8
VALOY_NORTE_50V
10
1097849.1522
20
877069.6223
30
0.0
0
VERTEX
8
VALOY_NORTE_50V
10
1097867.6034
20
877096.7114
30
0.0
0
VERTEX
8
VALOY_NORTE_50V
10
1097872.9586
20
877102.9607
30
0.0
0
VERTEX
8
VALOY_NORTE_50V
10
1097915.7934
20
877096.0260
30
0.0
0
VERTEX
8
VALOY_NORTE_50V
10
1097958.7140
20
877089.0774
30
0.0
0
VERTEX
8
VALOY_NORTE_50V
10
1098001.2353
20
877082.1935
30
0.0
0
VERTEX
8
VALOY_NORTE_50V
10
1098018.0416
20
877079.4726
30
0.0
0
VERTEX
8
VALOY_NORTE_50V
10
1098068.9790
20
877077.9612
30
0.0
0
VERTEX
8
VALOY_NORTE_50V
10
1098068.2584
20
877086.7336
30
0.0
0
VERTEX
8
VALOY_NORTE_50V
10
1098071.2040
20
877103.9395
30
0.0
0
VERTEX
8
VALOY_NORTE_50V
10
1098082.8512
20
877126.1998
30
0.0
0
VERTEX
8
VALOY_NORTE_50V
10
1098088.0500
20
877146.5085
30
0.0
0
SEQEND
0
POLYLINE
8
VALOY_AREA_32V
66
1
70
1
0
VERTEX
8
VALOY_AREA_32V
10
1098031.5418
20
877042.7956
30
0.0
0
VERTEX
8
VALOY_AREA_32V
10
1098052.4684
20
877065.2040
30
0.0
0
VERTEX
8
VALOY_AREA_32V
10
1098068.9790
20
877077.9612
30
0.0
0
VERTEX
8
VALOY_AREA_32V
10
1098018.0416
20
877079.4726
30
0.0
0
VERTEX
8
VALOY_AREA_32V
10
1098016.0941
20
877064.8774
30
0.0
0
VERTEX
8
VALOY_AREA_32V
10
1098006.4629
20
877043.9280
30
0.0
0
VERTEX
8
VALOY_AREA_32V
10
1097975.1128
20
877005.8093
30
0.0
0
VERTEX
8
VALOY_AREA_32V
10
1097977.3025
20
876989.1653
30
0.0
0
VERTEX
8
VALOY_AREA_32V
10
1097991.3914
20
876985.2898
30
0.0
0
VERTEX
8
VALOY_AREA_32V
10
1097994.5838
20
876985.6544
30
0.0
0
VERTEX
8
VALOY_AREA_32V
10
1097999.6507
20
876981.4520
30
0.0
0
VERTEX
8
VALOY_AREA_32V
10
1098020.9466
20
876951.3492
30
0.0
0
VERTEX
8
VALOY_AREA_32V
10
1098033.0512
20
876918.5044
30
0.0
0
VERTEX
8
VALOY_AREA_32V
10
1098029.7071
20
876892.9091
30
0.0
0
VERTEX
8
VALOY_AREA_32V
10
1098016.8989
20
876886.0620
30
0.0
0
VERTEX
8
VALOY_AREA_32V
10
1097988.7235
20
876883.3367
30
0.0
0
VERTEX
8
VALOY_AREA_32V
10
1097980.6786
20
876879.6352
30
0.0
0
VERTEX
8
VALOY_AREA_32V
10
1097970.2232
20
876862.3030
30
0.0
0
VERTEX
8
VALOY_AREA_32V
10
1097961.9820
20
876854.5482
30
0.0
0
VERTEX
8
VALOY_AREA_32V
10
1097940.1055
20
876843.0777
30
0.0
0
VERTEX
8
VALOY_AREA_32V
10
1097967.8215
20
876833.3564
30
0.0
0
VERTEX
8
VALOY_AREA_32V
10
1097985.3572
20
876841.5117
30
0.0
0
VERTEX
8
VALOY_AREA_32V
10
1098008.5662
20
876861.7596
30
0.0
0
VERTEX
8
VALOY_AREA_32V
10
1098025.4644
20
876870.8878
30
0.0
0
VERTEX
8
VALOY_AREA_32V
10
1098034.2754
20
876878.1886
30
0.0
0
VERTEX
8
VALOY_AREA_32V
10
1098041.0037
20
876889.6200
30
0.0
0
VERTEX
8
VALOY_AREA_32V
10
1098043.5793
20
876905.1189
30
0.0
0
VERTEX
8
VALOY_AREA_32V
10
1098044.8671
20
876932.9241
30
0.0
0
VERTEX
8
VALOY_AREA_32V
10
1098031.4887
20
876946.3609
30
0.0
0
VERTEX
8
VALOY_AREA_32V
10
1098026.0667
20
876964.3356
30
0.0
0
VERTEX
8
VALOY_AREA_32V
10
1098023.2089
20
876986.2217
30
0.0
0
VERTEX
8
VALOY_AREA_32V
10
1098021.2439
20
877011.5899
30
0.0
0
SEQEND
0
ENDSEC
0
EOF
