0
SECTION
2
ENTITIES
0
POLYLINE
8
0
66
1
70
1
0
VERTEX
8
0
10
1097976.2051
20
877280.1434
30
0.0
0
VERTEX
8
0
10
1098031.7430
20
877218.4624
30
0.0
0
VERTEX
8
0
10
1098031.7430
20
877218.4624
30
0.0
0
VERTEX
8
0
10
1098074.1840
20
877259.4472
30
0.0
0
VERTEX
8
0
10
1098170.9200
20
877221.2500
30
0.0
0
VERTEX
8
0
10
1098167.4600
20
877173.3500
30
0.0
0
VERTEX
8
0
10
1098148.8800
20
877134.6300
30
0.0
0
VERTEX
8
0
10
1098130.8300
20
877073.2600
30
0.0
0
VERTEX
8
0
10
1098077.1300
20
877078.7000
30
0.0
0
VERTEX
8
0
10
1098068.0687
20
877037.6620
30
0.0
0
VERTEX
8
0
10
1098059.4395
20
877030.6460
30
0.0
0
VERTEX
8
0
10
1098055.9094
20
877021.5750
30
0.0
0
VERTEX
8
0
10
1098041.9610
20
877010.8040
30
0.0
0
VERTEX
8
0
10
1098039.1953
20
877006.2950
30
0.0
0
VERTEX
8
0
10
1098038.4051
20
877003.9180
30
0.0
0
VERTEX
8
0
10
1098035.3199
20
876991.9101
30
0.0
0
VERTEX
8
0
10
1098035.1259
20
876987.2507
30
0.0
0
VERTEX
8
0
10
1098039.4597
20
876986.4742
30
0.0
0
VERTEX
8
0
10
1098052.6286
20
876963.7310
30
0.0
0
VERTEX
8
0
10
1098058.1599
20
876942.8028
30
0.0
0
VERTEX
8
0
10
1098058.1599
20
876942.8028
30
0.0
0
VERTEX
8
0
10
1098062.9752
20
876869.3593
30
0.0
0
VERTEX
8
0
10
1098011.3172
20
876856.6412
30
0.0
0
VERTEX
8
0
10
1097967.6059
20
876849.2768
30
0.0
0
VERTEX
8
0
10
1097927.7504
20
876838.2183
30
0.0
0
VERTEX
8
0
10
1097918.6342
20
876844.3984
30
0.0
0
VERTEX
8
0
10
1097912.3073
20
876845.5957
30
0.0
0
VERTEX
8
0
10
1097897.2771
20
876847.4103
30
0.0
0
VERTEX
8
0
10
1097878.8264
20
876848.8390
30
0.0
0
VERTEX
8
0
10
1097825.6044
20
876782.8479
30
0.0
0
VERTEX
8
0
10
1097823.7951
20
876781.4191
30
0.0
0
VERTEX
8
0
10
1097820.7270
20
876773.3383
30
0.0
0
VERTEX
8
0
10
1097814.7087
20
876761.3187
30
0.0
0
VERTEX
8
0
10
1097814.4864
20
876755.4743
30
0.0
0
VERTEX
8
0
10
1097812.2660
20
876755.1102
30
0.0
0
VERTEX
8
0
10
1097810.6585
20
876751.0887
30
0.0
0
VERTEX
8
0
10
1097809.2192
20
876748.6367
30
0.0
0
VERTEX
8
0
10
1097804.5640
20
876737.1930
30
0.0
0
VERTEX
8
0
10
1097792.8770
20
876709.5070
30
0.0
0
VERTEX
8
0
10
1097785.6450
20
876696.3510
30
0.0
0
VERTEX
8
0
10
1097711.2219
20
876671.5866
30
0.0
0
VERTEX
8
0
10
1097703.8569
20
876671.1726
30
0.0
0
VERTEX
8
0
10
1097703.3119
20
876671.3626
30
0.0
0
VERTEX
8
0
10
1097692.4199
20
876668.7586
30
0.0
0
VERTEX
8
0
10
1097700.9389
20
876706.3416
30
0.0
0
VERTEX
8
0
10
1097702.7529
20
876715.9686
30
0.0
0
VERTEX
8
0
10
1097704.6179
20
876724.0206
30
0.0
0
VERTEX
8
0
10
1097702.3449
20
876728.2346
30
0.0
0
VERTEX
8
0
10
1097695.0029
20
876757.4586
30
0.0
0
VERTEX
8
0
10
1097716.6309
20
876770.1846
30
0.0
0
VERTEX
8
0
10
1097729.2599
20
876785.4396
30
0.0
0
VERTEX
8
0
10
1097745.9369
20
876786.7086
30
0.0
0
VERTEX
8
0
10
1097757.8689
20
876795.4106
30
0.0
0
VERTEX
8
0
10
1097751.3679
20
876808.6956
30
0.0
0
VERTEX
8
0
10
1097757.4919
20
876812.4716
30
0.0
0
VERTEX
8
0
10
1097780.9859
20
876823.0136
30
0.0
0
VERTEX
8
0
10
1097779.9439
20
876829.7576
30
0.0
0
VERTEX
8
0
10
1097777.7029
20
876833.8366
30
0.0
0
VERTEX
8
0
10
1097781.8039
20
876845.0776
30
0.0
0
VERTEX
8
0
10
1097809.4181
20
876897.7210
30
0.0
0
VERTEX
8
0
10
1097757.0707
20
876906.0120
30
0.0
0
VERTEX
8
0
10
1097725.7453
20
876967.4915
30
0.0
0
VERTEX
8
0
10
1097721.9087
20
877022.3575
30
0.0
0
VERTEX
8
0
10
1097729.3321
20
877054.5117
30
0.0
0
VERTEX
8
0
10
1097728.9132
20
877078.5080
30
0.0
0
VERTEX
8
0
10
1097713.7357
20
877149.9128
30
0.0
0
VERTEX
8
0
10
1097745.0009
20
877199.9477
30
0.0
0
VERTEX
8
0
10
1097756.1441
20
877206.6431
30
0.0
0
VERTEX
8
0
10
1097781.0080
20
877214.2448
30
0.0
0
VERTEX
8
0
10
1097805.6282
20
877218.5860
30
0.0
0
VERTEX
8
0
10
1097913.2895
20
877249.4574
30
0.0
0
SEQEND
0
ENDSEC
0
EOF
