  0
SECTION
  2
HEADER
  9
$ACADVER
  1
AC1018
  9
$ACADMAINTVER
 70
     0
  9
$DWGCODEPAGE
  3
ANSI_1252
  9
$EXTMIN
 10
4644702.05070568
 20
1943203.8387401
 30
0.0
  9
$EXTMAX
 10
4645156.89474634
 20
1943811.79073802
 30
0.0
  9
$LIMMIN
 10
0.0
 20
0.0
  9
$LIMMAX
 10
12.0
 20
9.0
  9
$ORTHOMODE
 70
     0
  9
$REGENMODE
 70
     1
  9
$FILLMODE
 70
     1
  9
$QTEXTMODE
 70
     0
  9
$MIRRTEXT
 70
     1
  9
$LTSCALE
 40
1.0
  9
$ATTMODE
 70
     1
  9
$TEXTSIZE
 40
0.2
  9
$TRACEWID
 40
0.05
  9
$TEXTSTYLE
  7
Standard
  9
$CLAYER
  8
0
  9
$CELTYPE
  6
ByLayer
  9
$CECOLOR
 62
   256
  9
$CELTSCALE
 40
1.0
  9
$DISPSILH
 70
     0
  9
$LUNITS
 70
     2
  9
$LUPREC
 70
     4
  9
$SKETCHINC
 40
0.1
  9
$FILLETRAD
 40
0.5
  9
$AUNITS
 70
     0
  9
$AUPREC
 70
     0
  9
$MENU
  1
.
  9
$ELEVATION
 40
0.0
  9
$PELEVATION
 40
0.0
  9
$THICKNESS
 40
0.0
  9
$LIMCHECK
 70
     0
  9
$CHAMFERA
 40
0.5
  9
$CHAMFERB
 40
0.5
  9
$CHAMFERC
 40
1.0
  9
$CHAMFERD
 40
0.0
  9
$SKPOLY
 70
     0
  9
$ANGBASE
 50
0.0
  9
$ANGDIR
 70
     0
  9
$PDMODE
 70
     0
  9
$PDSIZE
 40
0.0
  9
$PLINEWID
 40
0.0
  9
$SPLFRAME
 70
     0
  9
$SPLINETYPE
 70
     6
  9
$SPLINESEGS
 70
     8
  9
$HANDSEED
  5
00020003
  9
$SURFTAB1
 70
     6
  9
$SURFTAB2
 70
     6
  9
$SURFTYPE
 70
     6
  9
$SURFU
 70
     6
  9
$SURFV
 70
     6
  9
$UCSBASE
  2

  9
$UCSNAME
  2

  9
$UCSORG
 10
0.0
 20
0.0
 30
0.0
  9
$UCSXDIR
 10
1.0
 20
0.0
 30
0.0
  9
$UCSYDIR
 10
0.0
 20
1.0
 30
0.0
  9
$UCSORTHOREF
  2

  9
$UCSORTHOVIEW
 70
     0
  9
$UCSORGTOP
 10
0.0
 20
0.0
 30
0.0
  9
$UCSORGBOTTOM
 10
0.0
 20
0.0
 30
0.0
  9
$UCSORGLEFT
 10
0.0
 20
0.0
 30
0.0
  9
$UCSORGRIGHT
 10
0.0
 20
0.0
 30
0.0
  9
$UCSORGFRONT
 10
0.0
 20
0.0
 30
0.0
  9
$UCSORGBACK
 10
0.0
 20
0.0
 30
0.0
  9
$PUCSBASE
  2

  9
$PUCSNAME
  2

  9
$PUCSORG
 10
0.0
 20
0.0
 30
0.0
  9
$PUCSXDIR
 10
1.0
 20
0.0
 30
0.0
  9
$PUCSYDIR
 10
0.0
 20
1.0
 30
0.0
  9
$PUCSORTHOREF
  2

  9
$PUCSORTHOVIEW
 70
     0
  9
$PUCSORGTOP
 10
0.0
 20
0.0
 30
0.0
  9
$PUCSORGBOTTOM
 10
0.0
 20
0.0
 30
0.0
  9
$PUCSORGLEFT
 10
0.0
 20
0.0
 30
0.0
  9
$PUCSORGRIGHT
 10
0.0
 20
0.0
 30
0.0
  9
$PUCSORGFRONT
 10
0.0
 20
0.0
 30
0.0
  9
$PUCSORGBACK
 10
0.0
 20
0.0
 30
0.0
  9
$WORLDVIEW
 70
     1
  9
$SHADEDGE
 70
     3
  9
$SHADEDIF
 70
    70
  9
$TILEMODE
 70
     1
  9
$MAXACTVP
 70
    64
  9
$PINSBASE
 10
0.0
 20
0.0
 30
0.0
  9
$PLIMCHECK
 70
     0
  9
$PEXTMIN
 10
1.000000000000000E+20
 20
1.000000000000000E+20
 30
1.000000000000000E+20
  9
$PEXTMAX
 10
-1.000000000000000E+20
 20
-1.000000000000000E+20
 30
-1.000000000000000E+20
  9
$PLIMMIN
 10
0.0
 20
0.0
  9
$PLIMMAX
 10
12.0
 20
9.0
  9
$UNITMODE
 70
     0
  9
$VISRETAIN
 70
     1
  9
$PLINEGEN
 70
     0
  9
$PSLTSCALE
 70
     1
  9
$TREEDEPTH
 70
  3020
  9
$CMLSTYLE
  2
Standard
  9
$CMLJUST
 70
     0
  9
$CMLSCALE
 40
1.0
  9
$PROXYGRAPHICS
 70
     1
  9
$MEASUREMENT
 70
     0
  9
$CELWEIGHT
370
    -1
  9
$ENDCAPS
280
     0
  9
$JOINSTYLE
280
     0
  9
$LWDISPLAY
290
     0
  9
$INSUNITS
 70
6
  9
$HYPERLINKBASE
  1

  9
$STYLESHEET
  1

  9
$XEDIT
290
     1
  9
$CEPSNTYPE
380
     0
  9
$PSTYLEMODE
290
     1
  9
$EXTNAMES
290
     1
  9
$PSVPSCALE
 40
0.0
  9
$OLESTARTUP
290
     0
  9
$SORTENTS
280
   127
  9
$INDEXCTL
280
     0
  9
$HIDETEXT
280
     1
  9
$XCLIPFRAME
290
     0
  9
$HALOGAP
280
     0
  9
$OBSCOLOR
 70
   257
  9
$OBSLTYPE
280
     0
  9
$INTERSECTIONDISPLAY
280
     0
  9
$INTERSECTIONCOLOR
 70
   257
  9
$DIMASSOC
280
     2
  9
$PROJECTNAME
  1

  0
ENDSEC
  0
SECTION
  2
CLASSES
  0
CLASS
  1
ACDBDICTIONARYWDFLT
  2
AcDbDictionaryWithDefault
  3
ObjectDBX Classes
 90
        0
 91
        4
280
     0
281
     0
  0
ENDSEC
  0
SECTION
  2
TABLES
  0
TABLE
  2
VPORT
  5
8
330
0
100
AcDbSymbolTable
 70
     1
  0
VPORT
  5
29
330
8
100
AcDbSymbolTableRecord
100
AcDbViewportTableRecord
  2
*Active
 70
     0
 10
0.0
 20
0.0
 11
1.0
 21
1.0
 12
80.25
 22
106.4409457059851
 13
0.0
 23
0.0
 14
0.5
 24
0.5
 15
0.5
 25
0.5
 16
0.0
 26
0.0
 36
1.0
 17
0.0
 27
0.0
 37
0.0
 40
113.3818914119703
 41
0.8863849310366128
 42
50.0
 43
0.0
 44
0.0
 50
0.0
 51
0.0
 71
     0
 72
  1000
 73
     1
 74
     3
 75
     0
 76
     0
 77
     0
 78
     0
281
     0
 65
     1
110
0.0
120
0.0
130
0.0
111
1.0
121
0.0
131
0.0
112
0.0
122
1.0
132
0.0
 79
     0
146
0.0
  0
ENDTAB
  0
TABLE
  2
LTYPE
  5
5
330
0
100
AcDbSymbolTable
 70
     1
  0
LTYPE
  5
14
330
5
100
AcDbSymbolTableRecord
100
AcDbLinetypeTableRecord
  2
ByBlock
 70
     0
  3

 72
    65
 73
     0
 40
0.0
  0
LTYPE
  5
15
330
5
100
AcDbSymbolTableRecord
100
AcDbLinetypeTableRecord
  2
ByLayer
 70
     0
  3

 72
    65
 73
     0
 40
0.0
  0
LTYPE
  5
16
330
5
100
AcDbSymbolTableRecord
100
AcDbLinetypeTableRecord
  2
Continuous
 70
     0
  3
Solid line
 72
    65
 73
     0
 40
0.0
  0
ENDTAB
  0
TABLE
  2
LAYER
  5
2
330
0
100
AcDbSymbolTable
 70
     1
  0
LAYER
  5
10
330
2
100
AcDbSymbolTableRecord
100
AcDbLayerTableRecord
  2
0
 70
     0
 62
     7
  6
Continuous
370
    -3
390
F
  0
ENDTAB
  0
TABLE
  2
STYLE
  5
3
330
0
100
AcDbSymbolTable
 70
     1
  0
STYLE
  5
11
330
3
100
AcDbSymbolTableRecord
100
AcDbTextStyleTableRecord
  2
Standard
 70
     0
 40
0.0
 41
1.0
 50
0.0
 71
     0
 42
0.2
  3
txt
  4

  0
ENDTAB
  0
TABLE
  2
VIEW
  5
6
330
0
100
AcDbSymbolTable
 70
     0
  0
ENDTAB
  0
TABLE
  2
UCS
  5
7
330
0
100
AcDbSymbolTable
 70
     0
  0
ENDTAB
  0
TABLE
  2
APPID
  5
9
330
0
100
AcDbSymbolTable
 70
     1
  0
APPID
  5
12
330
9
100
AcDbSymbolTableRecord
100
AcDbRegAppTableRecord
  2
ACAD
 70
     0
  0
APPID
  5
13
330
9
100
AcDbSymbolTableRecord
100
AcDbRegAppTableRecord
  2
HATCHBACKGROUNDCOLOR
 70
     0
  0
ENDTAB
  0
TABLE
  2
DIMSTYLE
  5
A
330
0
100
AcDbSymbolTable
 70
     1
100
AcDbDimStyleTable
  0
DIMSTYLE
105
27
330
A
100
AcDbSymbolTableRecord
100
AcDbDimStyleTableRecord
  2
Standard
 70
     0
340
11
  0
ENDTAB
  0
TABLE
  2
BLOCK_RECORD
  5
1
330
0
100
AcDbSymbolTable
 70
     1
  0
BLOCK_RECORD
  5
1F
330
1
100
AcDbSymbolTableRecord
100
AcDbBlockTableRecord
  2
*Model_Space
340
22
  0
BLOCK_RECORD
  5
1B
330
1
100
AcDbSymbolTableRecord
100
AcDbBlockTableRecord
  2
*Paper_Space
340
1E
  0
ENDTAB
  0
ENDSEC
  0
SECTION
  2
BLOCKS
  0
BLOCK
  5
20
330
1F
100
AcDbEntity
  8
0
100
AcDbBlockBegin
  2
*Model_Space
 70
     0
 10
0.0
 20
0.0
 30
0.0
  3
*Model_Space
  1

  0
ENDBLK
  5
21
330
1F
100
AcDbEntity
  8
0
100
AcDbBlockEnd
  0
BLOCK
  5
1C
330
1B
100
AcDbEntity
 67
     1
  8
0
100
AcDbBlockBegin
  2
*Paper_Space
 70
     0
 10
0.0
 20
0.0
 30
0.0
  3
*Paper_Space
  1

  0
ENDBLK
  5
1D
330
1B
100
AcDbEntity
 67
     1
  8
0
100
AcDbBlockEnd
  0
ENDSEC
  0
SECTION
  2
ENTITIES
  0
LWPOLYLINE
  5
20000
100
AcDbEntity
  8
0
100
AcDbPolyline
 70
0
 90
61
 38
0
 10
4645029.84177893
 20
1943573.89478669
 10
4645039.56980344
 20
1943594.81572067
 10
4645041.5817511
 20
1943609.41171402
 10
4645024.77660839
 20
1943612.20712951
 10
4644982.25822179
 20
1943619.27956432
 10
4644939.34054281
 20
1943626.41847643
 10
4644896.50863792
 20
1943633.54311493
 10
4644891.12297336
 20
1943627.31304994
 10
4644872.54273895
 20
1943600.28669353
 10
4644855.06617181
 20
1943567.74465197
 10
4644844.30563436
 20
1943550.49403352
 10
4644844.30563767
 20
1943522.26360408
 10
4644846.25400546
 20
1943495.23183141
 10
4644838.34590671
 20
1943486.29759728
 10
4644820.42117178
 20
1943476.20822251
 10
4644806.14179212
 20
1943456.26174128
 10
4644813.47277872
 20
1943432.64871823
 10
4644797.1227978
 20
1943400.10675184
 10
4644808.48271754
 20
1943383.26773805
 10
4644804.75176403
 20
1943369.98679218
 10
4644805.74372916
 20
1943358.21671505
 10
4644783.82871235
 20
1943340.54380472
 10
4644776.6037364
 20
1943323.99071831
 10
4644756.51878374
 20
1943321.99573359
 10
4644731.56972297
 20
1943300.14578685
 10
4644720.42273573
 20
1943293.83073674
 10
4644715.85771731
 20
1943282.34775533
 10
4644722.08376732
 20
1943265.86876526
 10
4644709.26277546
 20
1943246.59376515
 10
4644712.86878592
 20
1943228.53376464
 10
4644702.05070568
 20
1943214.74179005
 10
4644705.41479845
 20
1943204.23377648
 10
4644728.01877963
 20
1943203.8387401
 10
4644746.70677275
 20
1943208.36774572
 10
4644757.97479404
 20
1943210.9257253
 10
4644794.00771641
 20
1943225.31271433
 10
4644806.31373136
 20
1943234.03072856
 10
4644820.78771991
 20
1943259.88476202
 10
4644826.12673446
 20
1943271.57572162
 10
4644835.7267923
 20
1943279.76377583
 10
4644851.85278066
 20
1943320.03376239
 10
4644862.64872162
 20
1943335.9717973
 10
4644874.94975023
 20
1943349.45872268
 10
4644888.78175903
 20
1943362.84876263
 10
4644904.27076737
 20
1943379.22708365
 10
4644937.42279926
 20
1943376.66378857
 10
4644962.57273334
 20
1943373.20470634
 10
4644984.51273604
 20
1943384.58776883
 10
4644992.79272165
 20
1943392.31180138
 10
4645003.32976962
 20
1943409.60970701
 10
4645011.39578389
 20
1943413.27872117
 10
4645039.60080256
 20
1943415.8837679
 10
4645052.44674333
 20
1943422.67974702
 10
4645055.90377049
 20
1943448.27674915
 10
4645043.93372812
 20
1943481.19472373
 10
4645022.75470955
 20
1943511.40877407
 10
4645017.70280227
 20
1943515.63577348
 10
4645014.50680398
 20
1943515.28476699
 10
4645000.42577256
 20
1943519.22372885
 10
4644998.30676332
 20
1943535.88774304
 10
4645029.84177893
 20
1943573.89478669
  0
LWPOLYLINE
  5
20001
100
AcDbEntity
  8
0
100
AcDbPolyline
 70
0
 90
51
 38
0
 10
4645122.81874722
 20
1943710.66878365
 10
4645156.89474634
 20
1943746.82771679
 10
4645140.59072967
 20
1943753.77678396
 10
4645118.29170781
 20
1943765.1607789
 10
4645082.37074457
 20
1943780.38472791
 10
4645070.53373806
 20
1943776.54675969
 10
4645056.44977094
 20
1943766.12373123
 10
4645053.9057965
 20
1943773.76771282
 10
4645037.5837123
 20
1943782.64872809
 10
4645026.74675396
 20
1943792.97574873
 10
4645013.27372685
 20
1943806.61773866
 10
4645007.18975542
 20
1943811.79073802
 10
4645006.64089128
 20
1943811.67363732
 10
4644971.86779956
 20
1943796.08978717
 10
4644934.69077727
 20
1943776.81972566
 10
4644911.30477967
 20
1943769.22878334
 10
4644884.89179805
 20
1943765.44972318
 10
4644853.79075251
 20
1943755.94070837
 10
4644835.7327501
 20
1943751.50075473
 10
4644800.49777004
 20
1943746.90973158
 10
4644794.88372556
 20
1943745.55173827
 10
4644774.97770784
 20
1943732.261792
 10
4644744.8887523
 20
1943695.40378958
 10
4644750.94879876
 20
1943647.20875556
 10
4644750.48078193
 20
1943610.5907366
 10
4644743.55979332
 20
1943565.9347727
 10
4644746.99880464
 20
1943520.95578555
 10
4644752.62278561
 20
1943506.29677807
 10
4644758.26074
 20
1943492.32275985
 10
4644767.4597331
 20
1943478.14270956
 10
4644792.31572011
 20
1943460.11474419
 10
4644806.14179212
 20
1943456.26174128
 10
4644820.42117178
 20
1943476.20822251
 10
4644838.34590671
 20
1943486.29759728
 10
4644846.25400546
 20
1943495.23183141
 10
4644844.30563767
 20
1943522.26360408
 10
4644844.30563436
 20
1943550.49403352
 10
4644855.06617181
 20
1943567.74465197
 10
4644872.54273895
 20
1943600.28669353
 10
4644891.12297336
 20
1943627.31304994
 10
4644896.50863792
 20
1943633.54311493
 10
4644939.34054281
 20
1943626.41847643
 10
4644982.25822179
 20
1943619.27956432
 10
4645024.77660839
 20
1943612.20712951
 10
4645041.5817511
 20
1943609.41171402
 10
4645092.54479728
 20
1943607.67872981
 10
4645091.86173896
 20
1943616.45979274
 10
4645094.8837281
 20
1943633.66380279
 10
4645106.63471149
 20
1943655.88770982
 10
4645111.92477235
 20
1943676.18671403
 10
4645122.81874722
 20
1943710.66878365
  0
LWPOLYLINE
  5
20002
100
AcDbEntity
  8
0
100
AcDbPolyline
 70
0
 90
33
 38
0
 10
4645054.93163146
 20
1943572.65305447
 10
4645075.96851052
 20
1943594.98498193
 10
4645092.54479728
 20
1943607.67872981
 10
4645041.5817511
 20
1943609.41171402
 10
4645039.56980344
 20
1943594.81572067
 10
4645029.84177893
 20
1943573.89478669
 10
4644998.30676332
 20
1943535.88774304
 10
4645000.42577256
 20
1943519.22372885
 10
4645014.50680398
 20
1943515.28476699
 10
4645017.70280227
 20
1943515.63577348
 10
4645022.75470955
 20
1943511.40877407
 10
4645043.93372812
 20
1943481.19472373
 10
4645055.90377049
 20
1943448.27674915
 10
4645052.44674333
 20
1943422.67974702
 10
4645039.60080256
 20
1943415.8837679
 10
4645011.39578389
 20
1943413.27872117
 10
4645003.32976962
 20
1943409.60970701
 10
4644992.79272165
 20
1943392.31180138
 10
4644984.51273604
 20
1943384.58776883
 10
4644962.57273334
 20
1943373.20470634
 10
4644990.26419797
 20
1943363.35727869
 10
4645007.84629576
 20
1943371.44183286
 10
4645031.15762624
 20
1943391.60207278
 10
4645048.10602721
 20
1943400.66289252
 10
4645056.95420308
 20
1943407.93016434
 10
4645063.73624464
 20
1943419.33966189
 10
4645066.3805725
 20
1943434.83720706
 10
4645067.78957131
 20
1943462.65440458
 10
4645054.460894
 20
1943476.15762364
 10
4645049.11329662
 20
1943494.1671641
 10
4645046.34846139
 20
1943516.07947591
 10
4645044.49207553
 20
1943541.47222434
 10
4645054.93163146
 20
1943572.65305447
  0
ENDSEC
  0
SECTION
  2
OBJECTS
  0
DICTIONARY
  5
C
330
0
100
AcDbDictionary
281
     1
  3
ACAD_GROUP
350
D
  3
ACAD_LAYOUT
350
1A
  3
ACAD_MLEADERSTYLE
350
43
  3
ACAD_PLOTSETTINGS
350
19
  3
ACAD_PLOTSTYLENAME
350
E
  3
ACAD_TABLESTYLE
350
42
  0
DICTIONARY
  5
D
102
{ACAD_REACTORS
330
C
102
}
330
C
100
AcDbDictionary
281
     1
  0
DICTIONARY
  5
1A
102
{ACAD_REACTORS
330
C
102
}
330
C
100
AcDbDictionary
281
     1
  3
Layout1
350
1E
  3
Model
350
22
  0
DICTIONARY
  5
43
102
{ACAD_REACTORS
330
C
102
}
330
C
100
AcDbDictionary
281
     1
  0
DICTIONARY
  5
19
102
{ACAD_REACTORS
330
C
102
}
330
C
100
AcDbDictionary
281
     1
  0
ACDBDICTIONARYWDFLT
  5
E
102
{ACAD_REACTORS
330
C
102
}
330
C
100
AcDbDictionary
281
     1
  3
Normal
350
F
100
AcDbDictionaryWithDefault
340
F
  0
DICTIONARY
  5
42
102
{ACAD_REACTORS
330
C
102
}
330
C
100
AcDbDictionary
281
     1
  0
LAYOUT
  5
1E
102
{ACAD_REACTORS
330
1A
102
}
330
1A
100
AcDbPlotSettings
  1

  2
none_device
  4

  6

 40
0.0
 41
0.0
 42
0.0
 43
0.0
 44
0.0
 45
0.0
 46
0.0
 47
0.0
 48
0.0
 49
0.0
140
0.0
141
0.0
142
1.0
143
1.0
 70
   688
 72
     0
 73
     0
 74
     5
  7

 75
    16
 76
     0
 77
     2
 78
   300
147
1.0
148
0.0
149
0.0
100
AcDbLayout
  1
Layout1
 70
     1
 71
     1
 10
0.0
 20
0.0
 11
12.0
 21
9.0
 12
0.0
 22
0.0
 32
0.0
 14
1.000000000000000E+20
 24
1.000000000000000E+20
 34
1.000000000000000E+20
 15
-1.000000000000000E+20
 25
-1.000000000000000E+20
 35
-1.000000000000000E+20
146
0.0
 13
0.0
 23
0.0
 33
0.0
 16
1.0
 26
0.0
 36
0.0
 17
0.0
 27
1.0
 37
0.0
 76
     0
330
1B
  0
LAYOUT
  5
22
102
{ACAD_REACTORS
330
1A
102
}
330
1A
100
AcDbPlotSettings
  1

  2
none_device
  4

  6

 40
0.0
 41
0.0
 42
0.0
 43
0.0
 44
0.0
 45
0.0
 46
0.0
 47
0.0
 48
0.0
 49
0.0
140
0.0
141
0.0
142
1.0
143
1.0
 70
  1712
 72
     0
 73
     0
 74
     0
  7

 75
     0
 76
     0
 77
     2
 78
   300
147
1.0
148
0.0
149
0.0
100
AcDbLayout
  1
Model
 70
     1
 71
     0
 10
0.0
 20
0.0
 11
12.0
 21
9.0
 12
0.0
 22
0.0
 32
0.0
 14
30.0
 24
49.75
 34
0.0
 15
130.5
 25
163.1318914119703
 35
0.0
146
0.0
 13
0.0
 23
0.0
 33
0.0
 16
1.0
 26
0.0
 36
0.0
 17
0.0
 27
1.0
 37
0.0
 76
     0
330
1F
331
29
  0
ACDBPLACEHOLDER
  5
F
102
{ACAD_REACTORS
330
E
102
}
330
E
  0
ENDSEC
  0
EOF
