0
SECTION
2
ENTITIES
0
POLYLINE
8
LATRINIDAD_OPTIMIZED
66
1
70
1
0
VERTEX
8
LATRINIDAD_OPTIMIZED
10
1098077.1300
20
877078.7000
30
0.0
0
VERTEX
8
LATRINIDAD_OPTIMIZED
10
1098130.8300
20
877073.2600
30
0.0
0
VERTEX
8
LATRINIDAD_OPTIMIZED
10
1098148.8800
20
877134.6300
30
0.0
0
VERTEX
8
LATRINIDAD_OPTIMIZED
10
1098167.4600
20
877173.3500
30
0.0
0
VERTEX
8
LATRINIDAD_OPTIMIZED
10
1098170.9200
20
877221.2500
30
0.0
0
VERTEX
8
LATRINIDAD_OPTIMIZED
10
1098074.1840
20
877259.4472
30
0.0
0
VERTEX
8
LATRINIDAD_OPTIMIZED
10
1098031.7430
20
877218.4624
30
0.0
0
VERTEX
8
LATRINIDAD_OPTIMIZED
10
1097976.2051
20
877280.1434
30
0.0
0
VERTEX
8
LATRINIDAD_OPTIMIZED
10
1097913.2895
20
877249.4574
30
0.0
0
VERTEX
8
LATRINIDAD_OPTIMIZED
10
1097805.6282
20
877218.5860
30
0.0
0
VERTEX
8
LATRINIDAD_OPTIMIZED
10
1097781.0080
20
877214.2448
30
0.0
0
VERTEX
8
LATRINIDAD_OPTIMIZED
10
1097756.1441
20
877206.6431
30
0.0
0
VERTEX
8
LATRINIDAD_OPTIMIZED
10
1097745.0009
20
877199.9477
30
0.0
0
VERTEX
8
LATRINIDAD_OPTIMIZED
10
1097713.7357
20
877149.9128
30
0.0
0
VERTEX
8
LATRINIDAD_OPTIMIZED
10
1097728.9132
20
877078.5080
30
0.0
0
VERTEX
8
LATRINIDAD_OPTIMIZED
10
1097729.3321
20
877054.5117
30
0.0
0
VERTEX
8
LATRINIDAD_OPTIMIZED
10
1097721.9087
20
877022.3575
30
0.0
0
VERTEX
8
LATRINIDAD_OPTIMIZED
10
1097725.7453
20
876967.4915
30
0.0
0
VERTEX
8
LATRINIDAD_OPTIMIZED
10
1097757.0707
20
876906.0120
30
0.0
0
VERTEX
8
LATRINIDAD_OPTIMIZED
10
1097809.4181
20
876897.7210
30
0.0
0
VERTEX
8
LATRINIDAD_OPTIMIZED
10
1097781.8039
20
876845.0776
30
0.0
0
VERTEX
8
LATRINIDAD_OPTIMIZED
10
1097777.7029
20
876833.8366
30
0.0
0
VERTEX
8
LATRINIDAD_OPTIMIZED
10
1097779.9439
20
876829.7576
30
0.0
0
VERTEX
8
LATRINIDAD_OPTIMIZED
10
1097780.9859
20
876823.0136
30
0.0
0
VERTEX
8
LATRINIDAD_OPTIMIZED
10
1097757.4919
20
876812.4716
30
0.0
0
VERTEX
8
LATRINIDAD_OPTIMIZED
10
1097751.3679
20
876808.6956
30
0.0
0
VERTEX
8
LATRINIDAD_OPTIMIZED
10
1097757.8689
20
876795.4106
30
0.0
0
VERTEX
8
LATRINIDAD_OPTIMIZED
10
1097745.9369
20
876786.7086
30
0.0
0
VERTEX
8
LATRINIDAD_OPTIMIZED
10
1097729.2599
20
876785.4396
30
0.0
0
VERTEX
8
LATRINIDAD_OPTIMIZED
10
1097716.6309
20
876770.1846
30
0.0
0
VERTEX
8
LATRINIDAD_OPTIMIZED
10
1097695.0029
20
876757.4586
30
0.0
0
VERTEX
8
LATRINIDAD_OPTIMIZED
10
1097702.3449
20
876728.2346
30
0.0
0
VERTEX
8
LATRINIDAD_OPTIMIZED
10
1097704.6179
20
876724.0206
30
0.0
0
VERTEX
8
LATRINIDAD_OPTIMIZED
10
1097702.7529
20
876715.9686
30
0.0
0
VERTEX
8
LATRINIDAD_OPTIMIZED
10
1097700.9389
20
876706.3416
30
0.0
0
VERTEX
8
LATRINIDAD_OPTIMIZED
10
1097692.4199
20
876668.7586
30
0.0
0
VERTEX
8
LATRINIDAD_OPTIMIZED
10
1097703.3119
20
876671.3626
30
0.0
0
VERTEX
8
LATRINIDAD_OPTIMIZED
10
1097705.5828
20
876669.3992
30
0.0
0
VERTEX
8
LATRINIDAD_OPTIMIZED
10
1097777.8015
20
876690.1637
30
0.0
0
VERTEX
8
LATRINIDAD_OPTIMIZED
10
1097909.6332
20
876812.6045
30
0.0
0
VERTEX
8
LATRINIDAD_OPTIMIZED
10
1097932.0438
20
876809.0250
30
0.0
0
VERTEX
8
LATRINIDAD_OPTIMIZED
10
1097943.4708
20
876817.2104
30
0.0
0
VERTEX
8
LATRINIDAD_OPTIMIZED
10
1097961.0481
20
876814.3985
30
0.0
0
VERTEX
8
LATRINIDAD_OPTIMIZED
10
1097997.9622
20
876841.3756
30
0.0
0
VERTEX
8
LATRINIDAD_OPTIMIZED
10
1098003.4237
20
876860.6238
30
0.0
0
VERTEX
8
LATRINIDAD_OPTIMIZED
10
1098067.2050
20
876871.8649
30
0.0
0
VERTEX
8
LATRINIDAD_OPTIMIZED
10
1098047.1986
20
876968.5919
30
0.0
0
VERTEX
8
LATRINIDAD_OPTIMIZED
10
1098018.8791
20
876977.1531
30
0.0
0
VERTEX
8
LATRINIDAD_OPTIMIZED
10
1098076.0103
20
877056.1118
30
0.0
0
SEQEND
0
ENDSEC
0
EOF
