0
SECTION
2
ENTITIES
0
POLYLINE
8
LATRINIDAD_OPTIMIZED
66
1
70
1
0
VERTEX
8
LATRINIDAD_OPTIMIZED
10
4645104.5991
20
1943605.2232
30
0.0
0
VERTEX
8
LATRINIDAD_OPTIMIZED
10
4645158.5876
20
1943604.1067
30
0.0
0
VERTEX
8
LATRINIDAD_OPTIMIZED
10
4645169.0678
20
1943667.2428
30
0.0
0
VERTEX
8
LATRINIDAD_OPTIMIZED
10
4645185.8572
20
1943706.8296
30
0.0
0
VERTEX
8
LATRINIDAD_OPTIMIZED
10
4645199.0137
20
1943752.9914
30
0.0
0
VERTEX
8
LATRINIDAD_OPTIMIZED
10
4645101.6111
20
1943789.4433
30
0.0
0
VERTEX
8
LATRINIDAD_OPTIMIZED
10
4645058.3789
20
1943749.2939
30
0.0
0
VERTEX
8
LATRINIDAD_OPTIMIZED
10
4645001.3300
20
1943809.5800
30
0.0
0
VERTEX
8
LATRINIDAD_OPTIMIZED
10
4644938.4144
20
1943778.8940
30
0.0
0
VERTEX
8
LATRINIDAD_OPTIMIZED
10
4644830.7531
20
1943748.0226
30
0.0
0
VERTEX
8
LATRINIDAD_OPTIMIZED
10
4644806.1329
20
1943743.6814
30
0.0
0
VERTEX
8
LATRINIDAD_OPTIMIZED
10
4644781.2690
20
1943736.0798
30
0.0
0
VERTEX
8
LATRINIDAD_OPTIMIZED
10
4644770.1258
20
1943729.3843
30
0.0
0
VERTEX
8
LATRINIDAD_OPTIMIZED
10
4644738.8606
20
1943679.3494
30
0.0
0
VERTEX
8
LATRINIDAD_OPTIMIZED
10
4644754.0381
20
1943607.9447
30
0.0
0
VERTEX
8
LATRINIDAD_OPTIMIZED
10
4644754.4570
20
1943583.9483
30
0.0
0
VERTEX
8
LATRINIDAD_OPTIMIZED
10
4644747.0336
20
1943551.7941
30
0.0
0
VERTEX
8
LATRINIDAD_OPTIMIZED
10
4644750.8702
20
1943496.9281
30
0.0
0
VERTEX
8
LATRINIDAD_OPTIMIZED
10
4644782.1956
20
1943435.4486
30
0.0
0
VERTEX
8
LATRINIDAD_OPTIMIZED
10
4644834.5430
20
1943427.1576
30
0.0
0
VERTEX
8
LATRINIDAD_OPTIMIZED
10
4644804.1794
20
1943375.8911
30
0.0
0
VERTEX
8
LATRINIDAD_OPTIMIZED
10
4644800.0272
20
1943364.6607
30
0.0
0
VERTEX
8
LATRINIDAD_OPTIMIZED
10
4644802.2519
20
1943360.5695
30
0.0
0
VERTEX
8
LATRINIDAD_OPTIMIZED
10
4644803.2654
20
1943353.8167
30
0.0
0
VERTEX
8
LATRINIDAD_OPTIMIZED
10
4644779.7108
20
1943343.3697
30
0.0
0
VERTEX
8
LATRINIDAD_OPTIMIZED
10
4644773.5666
20
1943339.6178
30
0.0
0
VERTEX
8
LATRINIDAD_OPTIMIZED
10
4644780.0142
20
1943326.2962
30
0.0
0
VERTEX
8
LATRINIDAD_OPTIMIZED
10
4644768.0370
20
1943317.6403
30
0.0
0
VERTEX
8
LATRINIDAD_OPTIMIZED
10
4644751.3439
20
1943316.4427
30
0.0
0
VERTEX
8
LATRINIDAD_OPTIMIZED
10
4644738.6408
20
1943301.2326
30
0.0
0
VERTEX
8
LATRINIDAD_OPTIMIZED
10
4644716.9440
20
1943288.5922
30
0.0
0
VERTEX
8
LATRINIDAD_OPTIMIZED
10
4644724.1642
20
1943259.3178
30
0.0
0
VERTEX
8
LATRINIDAD_OPTIMIZED
10
4644726.4204
20
1943255.0913
30
0.0
0
VERTEX
8
LATRINIDAD_OPTIMIZED
10
4644724.5194
20
1943247.0422
30
0.0
0
VERTEX
8
LATRINIDAD_OPTIMIZED
10
4644722.6626
20
1943237.4170
30
0.0
0
VERTEX
8
LATRINIDAD_OPTIMIZED
10
4644713.9755
20
1943199.8469
30
0.0
0
VERTEX
8
LATRINIDAD_OPTIMIZED
10
4644729.2689
20
1943204.8411
30
0.0
0
VERTEX
8
LATRINIDAD_OPTIMIZED
10
4644802.8960
20
1943219.1262
30
0.0
0
VERTEX
8
LATRINIDAD_OPTIMIZED
10
4644935.7019
20
1943345.0157
30
0.0
0
VERTEX
8
LATRINIDAD_OPTIMIZED
10
4644956.8369
20
1943338.9074
30
0.0
0
VERTEX
8
LATRINIDAD_OPTIMIZED
10
4644969.1887
20
1943345.4977
30
0.0
0
VERTEX
8
LATRINIDAD_OPTIMIZED
10
4644984.0580
20
1943343.5222
30
0.0
0
VERTEX
8
LATRINIDAD_OPTIMIZED
10
4645021.1700
20
1943370.3615
30
0.0
0
VERTEX
8
LATRINIDAD_OPTIMIZED
10
4645025.0065
20
1943389.9901
30
0.0
0
VERTEX
8
LATRINIDAD_OPTIMIZED
10
4645089.7427
20
1943399.9638
30
0.0
0
VERTEX
8
LATRINIDAD_OPTIMIZED
10
4645068.3688
20
1943497.6530
30
0.0
0
VERTEX
8
LATRINIDAD_OPTIMIZED
10
4645040.9709
20
1943509.8741
30
0.0
0
VERTEX
8
LATRINIDAD_OPTIMIZED
10
4645097.2175
20
1943585.5634
30
0.0
0
SEQEND
0
ENDSEC
0
EOF
