0
SECTION
2
ENTITIES
0
POLYLINE
8
LoteJimmy
66
1
70
1
0
VERTEX
8
LoteJimmy
10
344.6000
20
321.9300
30
0.0
0
VERTEX
8
LoteJimmy
10
295.2700
20
329.6700
30
0.0
0
VERTEX
8
LoteJimmy
10
223.5300
20
362.2200
30
0.0
0
VERTEX
8
LoteJimmy
10
188.8700
20
370.8900
30
0.0
0
VERTEX
8
LoteJimmy
10
156.8700
20
479.5600
30
0.0
0
VERTEX
8
LoteJimmy
10
146.2000
20
498.8900
30
0.0
0
VERTEX
8
LoteJimmy
10
301.5300
20
512.2200
30
0.0
0
VERTEX
8
LoteJimmy
10
304.8700
20
422.8900
30
0.0
0
VERTEX
8
LoteJimmy
10
297.2700
20
404.3300
30
0.0
0
VERTEX
8
LoteJimmy
10
299.9300
20
380.3300
30
0.0
0
SEQEND
0
POLYLINE
8
LotePedro
66
1
70
1
0
VERTEX
8
LotePedro
10
300.6000
20
513.2200
30
0.0
0
VERTEX
8
LotePedro
10
311.2700
20
547.2200
30
0.0
0
VERTEX
8
LotePedro
10
336.6000
20
586.5600
30
0.0
0
VERTEX
8
LotePedro
10
366.6000
20
619.2200
30
0.0
0
VERTEX
8
LotePedro
10
376.6000
20
636.5600
30
0.0
0
VERTEX
8
LotePedro
10
378.6000
20
648.5600
30
0.0
0
VERTEX
8
LotePedro
10
275.9300
20
605.2200
30
0.0
0
VERTEX
8
LotePedro
10
235.9300
20
594.5600
30
0.0
0
VERTEX
8
LotePedro
10
155.9300
20
581.8900
30
0.0
0
VERTEX
8
LotePedro
10
127.9300
20
560.5600
30
0.0
0
VERTEX
8
LotePedro
10
129.2700
20
515.2200
30
0.0
0
VERTEX
8
LotePedro
10
145.9300
20
498.5600
30
0.0
0
SEQEND
0
POLYLINE
8
LoteNacho
66
1
70
1
0
VERTEX
8
LoteNacho
10
378.3300
20
648.5000
30
0.0
0
VERTEX
8
LoteNacho
10
377.5300
20
636.9900
30
0.0
0
VERTEX
8
LoteNacho
10
366.3300
20
619.8300
30
0.0
0
VERTEX
8
LoteNacho
10
337.6700
20
587.1700
30
0.0
0
VERTEX
8
LoteNacho
10
311.6700
20
548.7200
30
0.0
0
VERTEX
8
LoteNacho
10
302.3300
20
513.3900
30
0.0
0
VERTEX
8
LoteNacho
10
304.3300
20
423.3900
30
0.0
0
VERTEX
8
LoteNacho
10
297.6700
20
404.0600
30
0.0
0
VERTEX
8
LoteNacho
10
299.6700
20
380.0600
30
0.0
0
VERTEX
8
LoteNacho
10
344.3300
20
323.6100
30
0.0
0
VERTEX
8
LoteNacho
10
416.8700
20
310.2300
30
0.0
0
VERTEX
8
LoteNacho
10
465.0000
20
319.5100
30
0.0
0
VERTEX
8
LoteNacho
10
469.0000
20
668.1200
30
0.0
0
VERTEX
8
LoteNacho
10
444.3300
20
666.1200
30
0.0
0
SEQEND
0
ENDSEC
0
EOF
