0
SECTION
2
ENTITIES
0
POLYLINE
8
Polygon_1
66
1
70
1
0
VERTEX
8
Polygon_1
10
116.920
20
407.920
30
0.0
0
VERTEX
8
Polygon_1
10
128.920
20
423.670
30
0.0
0
VERTEX
8
Polygon_1
10
187.170
20
435.420
30
0.0
0
VERTEX
8
Polygon_1
10
213.170
20
448.170
30
0.0
0
VERTEX
8
Polygon_1
10
232.500
20
422.670
30
0.0
0
VERTEX
8
Polygon_1
10
246.250
20
436.170
30
0.0
0
VERTEX
8
Polygon_1
10
280.250
20
418.420
30
0.0
0
VERTEX
8
Polygon_1
10
267.000
20
388.170
30
0.0
0
VERTEX
8
Polygon_1
10
261.000
20
367.420
30
0.0
0
VERTEX
8
Polygon_1
10
242.250
20
367.420
30
0.0
0
VERTEX
8
Polygon_1
10
234.000
20
353.920
30
0.0
0
VERTEX
8
Polygon_1
10
233.500
20
343.920
30
0.0
0
VERTEX
8
Polygon_1
10
242.500
20
343.920
30
0.0
0
VERTEX
8
Polygon_1
10
250.000
20
334.420
30
0.0
0
VERTEX
8
Polygon_1
10
259.000
20
312.920
30
0.0
0
VERTEX
8
Polygon_1
10
230.000
20
306.420
30
0.0
0
VERTEX
8
Polygon_1
10
219.750
20
291.920
30
0.0
0
VERTEX
8
Polygon_1
10
203.500
20
287.670
30
0.0
0
VERTEX
8
Polygon_1
10
196.250
20
290.670
30
0.0
0
VERTEX
8
Polygon_1
10
175.750
20
269.420
30
0.0
0
VERTEX
8
Polygon_1
10
156.500
20
238.420
30
0.0
0
VERTEX
8
Polygon_1
10
141.920
20
232.420
30
0.0
0
VERTEX
8
Polygon_1
10
128.420
20
228.670
30
0.0
0
VERTEX
8
Polygon_1
10
120.420
20
225.920
30
0.0
0
VERTEX
8
Polygon_1
10
121.420
20
243.920
30
0.0
0
VERTEX
8
Polygon_1
10
124.170
20
252.420
30
0.0
0
VERTEX
8
Polygon_1
10
124.670
20
262.920
30
0.0
0
VERTEX
8
Polygon_1
10
139.920
20
270.170
30
0.0
0
VERTEX
8
Polygon_1
10
143.920
20
278.170
30
0.0
0
VERTEX
8
Polygon_1
10
153.420
20
284.170
30
0.0
0
VERTEX
8
Polygon_1
10
154.510
20
289.330
30
0.0
0
VERTEX
8
Polygon_1
10
149.100
20
298.040
30
0.0
0
VERTEX
8
Polygon_1
10
149.100
20
305.800
30
0.0
0
VERTEX
8
Polygon_1
10
151.920
20
311.220
30
0.0
0
VERTEX
8
Polygon_1
10
148.160
20
316.630
30
0.0
0
VERTEX
8
Polygon_1
10
127.920
20
322.510
30
0.0
0
VERTEX
8
Polygon_1
10
117.570
20
342.040
30
0.0
0
VERTEX
8
Polygon_1
10
117.100
20
361.100
30
0.0
0
VERTEX
8
Polygon_1
10
120.860
20
370.040
30
0.0
0
VERTEX
8
Polygon_1
10
121.570
20
383.920
30
0.0
0
SEQEND
0
ENDSEC
0
EOF
