0
SECTION
2
ENTITIES
0
POLYLINE
8
Lote_7
66
1
70
1
0
VERTEX
8
Lote_7
10
461.3900
20
141.8100
30
0.0
0
VERTEX
8
Lote_7
10
525.8300
20
273.8100
30
0.0
0
VERTEX
8
Lote_7
10
388.9500
20
376.7800
30
0.0
0
VERTEX
8
Lote_7
10
383.3900
20
441.8100
30
0.0
0
VERTEX
8
Lote_7
10
362.2900
20
254.2200
30
0.0
0
VERTEX
8
Lote_7
10
318.8300
20
224.8100
30
0.0
0
SEQEND
0
POLYLINE
8
Lote_6
66
1
70
1
0
VERTEX
8
Lote_6
10
362.8400
20
254.2200
30
0.0
0
VERTEX
8
Lote_6
10
346.7300
20
276.4400
30
0.0
0
VERTEX
8
Lote_6
10
381.1800
20
463.0000
30
0.0
0
VERTEX
8
Lote_6
10
383.3900
20
442.1400
30
0.0
0
SEQEND
0
POLYLINE
8
Lote_5
66
1
70
1
0
VERTEX
8
Lote_5
10
347.0600
20
275.8100
30
0.0
0
VERTEX
8
Lote_5
10
381.1800
20
461.3300
30
0.0
0
VERTEX
8
Lote_5
10
371.1800
20
601.3300
30
0.0
0
VERTEX
8
Lote_5
10
378.9500
20
637.3300
30
0.0
0
VERTEX
8
Lote_5
10
294.8300
20
466.8100
30
0.0
0
VERTEX
8
Lote_5
10
298.8300
20
389.4800
30
0.0
0
VERTEX
8
Lote_5
10
316.0600
20
378.1400
30
0.0
0
VERTEX
8
Lote_5
10
318.0600
20
365.8100
30
0.0
0
VERTEX
8
Lote_5
10
328.3900
20
356.1400
30
0.0
0
VERTEX
8
Lote_5
10
337.0600
20
317.4800
30
0.0
0
VERTEX
8
Lote_5
10
328.3900
20
302.8100
30
0.0
0
SEQEND
0
POLYLINE
8
Lote_4
66
1
70
1
0
VERTEX
8
Lote_4
10
294.5000
20
466.1400
30
0.0
0
VERTEX
8
Lote_4
10
289.5100
20
547.8900
30
0.0
0
VERTEX
8
Lote_4
10
248.0600
20
614.4800
30
0.0
0
VERTEX
8
Lote_4
10
314.5100
20
729.8100
30
0.0
0
VERTEX
8
Lote_4
10
484.3900
20
760.8100
30
0.0
0
VERTEX
8
Lote_4
10
462.8400
20
719.2500
30
0.0
0
VERTEX
8
Lote_4
10
475.6200
20
698.6900
30
0.0
0
VERTEX
8
Lote_4
10
442.2900
20
693.1400
30
0.0
0
VERTEX
8
Lote_4
10
378.9500
20
638.6900
30
0.0
0
SEQEND
0
POLYLINE
8
Camino
66
1
70
1
0
VERTEX
8
Camino
10
221.8300
20
581.8100
30
0.0
0
VERTEX
8
Camino
10
225.0600
20
577.5800
30
0.0
0
VERTEX
8
Camino
10
397.2900
20
757.0300
30
0.0
0
VERTEX
8
Camino
10
387.2900
20
753.6900
30
0.0
0
SEQEND
0
POLYLINE
8
Lote_8
66
1
70
1
0
VERTEX
8
Lote_8
10
319.1700
20
225.1400
30
0.0
0
VERTEX
8
Lote_8
10
460.7200
20
142.1400
30
0.0
0
VERTEX
8
Lote_8
10
410.3800
20
21.8700
30
0.0
0
VERTEX
8
Lote_8
10
282.6900
20
84.9500
30
0.0
0
VERTEX
8
Lote_8
10
238.8300
20
107.8100
30
0.0
0
VERTEX
8
Lote_8
10
258.8300
20
132.1400
30
0.0
0
VERTEX
8
Lote_8
10
267.3100
20
216.4900
30
0.0
0
VERTEX
8
Lote_8
10
290.1700
20
204.4800
30
0.0
0
SEQEND
0
ENDSEC
0
EOF
