0
SECTION
2
ENTITIES
0
POLYLINE
8
Polygon_1
66
1
70
1
0
VERTEX
8
Polygon_1
10
939.2900
20
735.8600
30
0.0
0
VERTEX
8
Polygon_1
10
1045.3000
20
826.1500
30
0.0
0
VERTEX
8
Polygon_1
10
1109.8300
20
758.4300
30
0.0
0
VERTEX
8
Polygon_1
10
1272.8300
20
816.4300
30
0.0
0
VERTEX
8
Polygon_1
10
1256.8300
20
889.4300
30
0.0
0
VERTEX
8
Polygon_1
10
1229.8300
20
961.4300
30
0.0
0
VERTEX
8
Polygon_1
10
1221.8300
20
1062.4300
30
0.0
0
VERTEX
8
Polygon_1
10
1126.8300
20
1073.4300
30
0.0
0
VERTEX
8
Polygon_1
10
1121.8300
20
1120.4300
30
0.0
0
VERTEX
8
Polygon_1
10
1106.8300
20
1164.4300
30
0.0
0
VERTEX
8
Polygon_1
10
1111.8300
20
1186.4300
30
0.0
0
VERTEX
8
Polygon_1
10
1147.8300
20
1183.4300
30
0.0
0
VERTEX
8
Polygon_1
10
1194.8300
20
1216.4300
30
0.0
0
VERTEX
8
Polygon_1
10
1247.8300
20
1309.4300
30
0.0
0
VERTEX
8
Polygon_1
10
1121.8300
20
1361.4300
30
0.0
0
VERTEX
8
Polygon_1
10
1079.8300
20
1440.4300
30
0.0
0
VERTEX
8
Polygon_1
10
1041.8300
20
1451.4300
30
0.0
0
VERTEX
8
Polygon_1
10
1014.8300
20
1468.4300
30
0.0
0
VERTEX
8
Polygon_1
10
996.8300
20
1471.4300
30
0.0
0
VERTEX
8
Polygon_1
10
962.8300
20
1472.4300
30
0.0
0
VERTEX
8
Polygon_1
10
899.8300
20
1562.4300
30
0.0
0
VERTEX
8
Polygon_1
10
838.8300
20
1721.4300
30
0.0
0
VERTEX
8
Polygon_1
10
824.8300
20
1743.4300
30
0.0
0
VERTEX
8
Polygon_1
10
786.8300
20
1767.4300
30
0.0
0
VERTEX
8
Polygon_1
10
677.8600
20
1819.7900
30
0.0
0
VERTEX
8
Polygon_1
10
669.6300
20
1741.5900
30
0.0
0
VERTEX
8
Polygon_1
10
676.3000
20
1651.5900
30
0.0
0
VERTEX
8
Polygon_1
10
736.4300
20
1604.0700
30
0.0
0
VERTEX
8
Polygon_1
10
759.2900
20
1539.7900
30
0.0
0
VERTEX
8
Polygon_1
10
796.3000
20
1506.0400
30
0.0
0
VERTEX
8
Polygon_1
10
745.0000
20
1446.9300
30
0.0
0
VERTEX
8
Polygon_1
10
761.8500
20
1409.3700
30
0.0
0
VERTEX
8
Polygon_1
10
739.2900
20
1379.7900
30
0.0
0
VERTEX
8
Polygon_1
10
640.7100
20
1372.6400
30
0.0
0
VERTEX
8
Polygon_1
10
572.1400
20
1286.9300
30
0.0
0
VERTEX
8
Polygon_1
10
550.7100
20
1196.9300
30
0.0
0
VERTEX
8
Polygon_1
10
558.7500
20
1151.7900
30
0.0
0
VERTEX
8
Polygon_1
10
556.4300
20
1102.6400
30
0.0
0
VERTEX
8
Polygon_1
10
513.5700
20
991.2100
30
0.0
0
VERTEX
8
Polygon_1
10
556.4300
20
899.7900
30
0.0
0
VERTEX
8
Polygon_1
10
605.0000
20
878.7100
30
0.0
0
VERTEX
8
Polygon_1
10
846.4300
20
794.9000
30
0.0
0
SEQEND
0
ENDSEC
0
EOF
