0
SECTION
2
ENTITIES
0
POLYLINE
8
LoteJimmy
66
1
70
1
0
VERTEX
8
LoteJimmy
10
1097928.5522
20
876837.6788
30
0.0
0
VERTEX
8
LoteJimmy
10
1097917.7176
20
876845.0670
30
0.0
0
VERTEX
8
LoteJimmy
10
1097898.2178
20
876846.2840
30
0.0
0
VERTEX
8
LoteJimmy
10
1097889.4265
20
876848.0638
30
0.0
0
VERTEX
8
LoteJimmy
10
1097856.6385
20
876806.4990
30
0.0
0
VERTEX
8
LoteJimmy
10
1097849.5336
20
876799.5908
30
0.0
0
VERTEX
8
LoteJimmy
10
1097885.0670
20
876779.6846
30
0.0
0
VERTEX
8
LoteJimmy
10
1097902.7238
20
876811.1589
30
0.0
0
VERTEX
8
LoteJimmy
10
1097904.5239
20
876818.9648
30
0.0
0
VERTEX
8
LoteJimmy
10
1097909.3765
20
876826.8537
30
0.0
0
SEQEND
0
POLYLINE
8
LotePedro
66
1
70
1
0
VERTEX
8
LotePedro
10
1097885.0670
20
876779.6846
30
0.0
0
VERTEX
8
LotePedro
10
1097879.9772
20
876765.2845
30
0.0
0
VERTEX
8
LotePedro
10
1097877.8028
20
876745.9816
30
0.0
0
VERTEX
8
LotePedro
10
1097877.9898
20
876728.8913
30
0.0
0
VERTEX
8
LotePedro
10
1097876.7077
20
876720.7154
30
0.0
0
VERTEX
8
LotePedro
10
1097874.6690
20
876715.8199
30
0.0
0
VERTEX
8
LotePedro
10
1097859.2886
20
876746.5719
30
0.0
0
VERTEX
8
LotePedro
10
1097851.6320
20
876754.9347
30
0.0
0
VERTEX
8
LotePedro
10
1097834.0417
20
876767.1916
30
0.0
0
VERTEX
8
LotePedro
10
1097831.7613
20
876778.7588
30
0.0
0
VERTEX
8
LotePedro
10
1097841.5342
20
876794.3813
30
0.0
0
VERTEX
8
LotePedro
10
1097849.5336
20
876799.5908
30
0.0
0
SEQEND
0
POLYLINE
8
LoteNacho
66
1
70
1
0
VERTEX
8
LoteNacho
10
1097874.6690
20
876715.8199
30
0.0
0
VERTEX
8
LoteNacho
10
1097876.7077
20
876720.7154
30
0.0
0
VERTEX
8
LoteNacho
10
1097877.9898
20
876728.8913
30
0.0
0
VERTEX
8
LoteNacho
10
1097877.8028
20
876745.9816
30
0.0
0
VERTEX
8
LoteNacho
10
1097879.9772
20
876765.2845
30
0.0
0
VERTEX
8
LoteNacho
10
1097885.0670
20
876779.6846
30
0.0
0
VERTEX
8
LoteNacho
10
1097902.7238
20
876811.1589
30
0.0
0
VERTEX
8
LoteNacho
10
1097904.5239
20
876818.9648
30
0.0
0
VERTEX
8
LoteNacho
10
1097909.3765
20
876826.8537
30
0.0
0
VERTEX
8
LoteNacho
10
1097928.5522
20
876837.6788
30
0.0
0
VERTEX
8
LoteNacho
10
1097948.8054
20
876825.7661
30
0.0
0
VERTEX
8
LoteNacho
10
1097963.1137
20
876806.0870
30
0.0
0
VERTEX
8
LoteNacho
10
1097892.4793
20
876699.3408
30
0.0
0
VERTEX
8
LoteNacho
10
1097886.8155
20
876698.6344
30
0.0
0
SEQEND
0
ENDSEC
0
EOF
