0
SECTION
2
ENTITIES
0
POLYLINE
8
0
66
1
70
1
0
VERTEX
8
0
10
1097976.2051
20
877280.1434
30
0.0
0
VERTEX
8
0
10
1098031.7430
20
877218.4624
30
0.0
0
VERTEX
8
0
10
1098031.7430
20
877218.4624
30
0.0
0
VERTEX
8
0
10
1098074.1840
20
877259.4472
30
0.0
0
VERTEX
8
0
10
1098170.9200
20
877221.2500
30
0.0
0
VERTEX
8
0
10
1098167.4600
20
877173.3500
30
0.0
0
VERTEX
8
0
10
1098148.8800
20
877134.6300
30
0.0
0
VERTEX
8
0
10
1098130.8300
20
877073.2600
30
0.0
0
VERTEX
8
0
10
1098077.1300
20
877078.7000
30
0.0
0
VERTEX
8
0
10
1098062.9586
20
877035.1696
30
0.0
0
VERTEX
8
0
10
1098054.3294
20
877028.1536
30
0.0
0
VERTEX
8
0
10
1098050.7993
20
877019.0826
30
0.0
0
VERTEX
8
0
10
1098036.8509
20
877008.3116
30
0.0
0
VERTEX
8
0
10
1098034.0852
20
877003.8026
30
0.0
0
VERTEX
8
0
10
1098033.2950
20
877001.4256
30
0.0
0
VERTEX
8
0
10
1098030.2099
20
876989.4178
30
0.0
0
VERTEX
8
0
10
1098030.0158
20
876984.7584
30
0.0
0
VERTEX
8
0
10
1098034.3496
20
876983.9818
30
0.0
0
VERTEX
8
0
10
1098047.5185
20
876961.2386
30
0.0
0
VERTEX
8
0
10
1098053.0499
20
876940.3104
30
0.0
0
VERTEX
8
0
10
1098053.0499
20
876940.3104
30
0.0
0
VERTEX
8
0
10
1098057.8651
20
876866.8669
30
0.0
0
VERTEX
8
0
10
1098006.2071
20
876854.1489
30
0.0
0
VERTEX
8
0
10
1097962.4958
20
876846.7844
30
0.0
0
VERTEX
8
0
10
1097922.6403
20
876835.7259
30
0.0
0
VERTEX
8
0
10
1097913.5241
20
876841.9060
30
0.0
0
VERTEX
8
0
10
1097907.1972
20
876843.1033
30
0.0
0
VERTEX
8
0
10
1097892.1670
20
876844.9179
30
0.0
0
VERTEX
8
0
10
1097873.7163
20
876846.3466
30
0.0
0
VERTEX
8
0
10
1097820.4943
20
876780.3555
30
0.0
0
VERTEX
8
0
10
1097818.6850
20
876778.9267
30
0.0
0
VERTEX
8
0
10
1097815.6169
20
876770.8459
30
0.0
0
VERTEX
8
0
10
1097809.5986
20
876758.8263
30
0.0
0
VERTEX
8
0
10
1097809.3763
20
876752.9819
30
0.0
0
VERTEX
8
0
10
1097807.1559
20
876752.6178
30
0.0
0
VERTEX
8
0
10
1097805.5484
20
876748.5963
30
0.0
0
VERTEX
8
0
10
1097804.1091
20
876746.1443
30
0.0
0
VERTEX
8
0
10
1097799.4539
20
876734.7006
30
0.0
0
VERTEX
8
0
10
1097787.7669
20
876707.0146
30
0.0
0
VERTEX
8
0
10
1097780.5349
20
876693.8586
30
0.0
0
VERTEX
8
0
10
1097711.2219
20
876671.5866
30
0.0
0
VERTEX
8
0
10
1097703.8569
20
876671.1726
30
0.0
0
VERTEX
8
0
10
1097703.3119
20
876671.3626
30
0.0
0
VERTEX
8
0
10
1097692.4199
20
876668.7586
30
0.0
0
VERTEX
8
0
10
1097700.9389
20
876706.3416
30
0.0
0
VERTEX
8
0
10
1097702.7529
20
876715.9686
30
0.0
0
VERTEX
8
0
10
1097704.6179
20
876724.0206
30
0.0
0
VERTEX
8
0
10
1097702.3449
20
876728.2346
30
0.0
0
VERTEX
8
0
10
1097695.0029
20
876757.4586
30
0.0
0
VERTEX
8
0
10
1097716.6309
20
876770.1846
30
0.0
0
VERTEX
8
0
10
1097729.2599
20
876785.4396
30
0.0
0
VERTEX
8
0
10
1097745.9369
20
876786.7086
30
0.0
0
VERTEX
8
0
10
1097757.8689
20
876795.4106
30
0.0
0
VERTEX
8
0
10
1097751.3679
20
876808.6956
30
0.0
0
VERTEX
8
0
10
1097757.4919
20
876812.4716
30
0.0
0
VERTEX
8
0
10
1097780.9859
20
876823.0136
30
0.0
0
VERTEX
8
0
10
1097779.9439
20
876829.7576
30
0.0
0
VERTEX
8
0
10
1097777.7029
20
876833.8366
30
0.0
0
VERTEX
8
0
10
1097781.8039
20
876845.0776
30
0.0
0
VERTEX
8
0
10
1097809.4181
20
876897.7210
30
0.0
0
VERTEX
8
0
10
1097757.0707
20
876906.0120
30
0.0
0
VERTEX
8
0
10
1097725.7453
20
876967.4915
30
0.0
0
VERTEX
8
0
10
1097721.9087
20
877022.3575
30
0.0
0
VERTEX
8
0
10
1097729.3321
20
877054.5117
30
0.0
0
VERTEX
8
0
10
1097728.9132
20
877078.5080
30
0.0
0
VERTEX
8
0
10
1097713.7357
20
877149.9128
30
0.0
0
VERTEX
8
0
10
1097745.0009
20
877199.9477
30
0.0
0
VERTEX
8
0
10
1097756.1441
20
877206.6431
30
0.0
0
VERTEX
8
0
10
1097781.0080
20
877214.2448
30
0.0
0
VERTEX
8
0
10
1097805.6282
20
877218.5860
30
0.0
0
VERTEX
8
0
10
1097913.2895
20
877249.4574
30
0.0
0
SEQEND
0
ENDSEC
0
EOF
