0
SECTION
2
ENTITIES
0
POLYLINE
8
Polygon_1
66
1
70
1
0
VERTEX
8
Polygon_1
10
606.4300
20
879.7900
30
0.0
0
VERTEX
8
Polygon_1
10
673.5700
20
859.7900
30
0.0
0
VERTEX
8
Polygon_1
10
849.2900
20
792.6400
30
0.0
0
VERTEX
8
Polygon_1
10
940.0000
20
737.7300
30
0.0
0
VERTEX
8
Polygon_1
10
1046.2500
20
828.9800
30
0.0
0
VERTEX
8
Polygon_1
10
1100.1900
20
760.0000
30
0.0
0
VERTEX
8
Polygon_1
10
1273.5300
20
818.3300
30
0.0
0
VERTEX
8
Polygon_1
10
1256.8600
20
888.3300
30
0.0
0
VERTEX
8
Polygon_1
10
1235.1900
20
951.6700
30
0.0
0
VERTEX
8
Polygon_1
10
1222.1400
20
1061.2100
30
0.0
0
VERTEX
8
Polygon_1
10
1138.5300
20
1073.3300
30
0.0
0
VERTEX
8
Polygon_1
10
1108.5300
20
1155.0000
30
0.0
0
VERTEX
8
Polygon_1
10
1113.5300
20
1186.6700
30
0.0
0
VERTEX
8
Polygon_1
10
1145.1900
20
1183.3300
30
0.0
0
VERTEX
8
Polygon_1
10
1195.1900
20
1211.6700
30
0.0
0
VERTEX
8
Polygon_1
10
1246.8600
20
1310.0000
30
0.0
0
VERTEX
8
Polygon_1
10
1120.7100
20
1362.6400
30
0.0
0
VERTEX
8
Polygon_1
10
1082.1400
20
1438.3600
30
0.0
0
VERTEX
8
Polygon_1
10
1039.2900
20
1452.6400
30
0.0
0
VERTEX
8
Polygon_1
10
998.5300
20
1468.3300
30
0.0
0
VERTEX
8
Polygon_1
10
968.5300
20
1468.3300
30
0.0
0
VERTEX
8
Polygon_1
10
901.8600
20
1561.6700
30
0.0
0
VERTEX
8
Polygon_1
10
839.2900
20
1728.3600
30
0.0
0
VERTEX
8
Polygon_1
10
787.8600
20
1769.7900
30
0.0
0
VERTEX
8
Polygon_1
10
677.8600
20
1819.7900
30
0.0
0
VERTEX
8
Polygon_1
10
673.5700
20
1739.7900
30
0.0
0
VERTEX
8
Polygon_1
10
672.1400
20
1655.5000
30
0.0
0
VERTEX
8
Polygon_1
10
736.4300
20
1604.0700
30
0.0
0
VERTEX
8
Polygon_1
10
759.2900
20
1539.7900
30
0.0
0
VERTEX
8
Polygon_1
10
787.8600
20
1509.7900
30
0.0
0
VERTEX
8
Polygon_1
10
745.0000
20
1446.9300
30
0.0
0
VERTEX
8
Polygon_1
10
755.0000
20
1406.9300
30
0.0
0
VERTEX
8
Polygon_1
10
739.2900
20
1379.7900
30
0.0
0
VERTEX
8
Polygon_1
10
640.7100
20
1372.6400
30
0.0
0
VERTEX
8
Polygon_1
10
572.1400
20
1286.9300
30
0.0
0
VERTEX
8
Polygon_1
10
550.7100
20
1196.9300
30
0.0
0
VERTEX
8
Polygon_1
10
562.1400
20
1151.2100
30
0.0
0
VERTEX
8
Polygon_1
10
556.4300
20
1102.6400
30
0.0
0
VERTEX
8
Polygon_1
10
513.5700
20
991.2100
30
0.0
0
VERTEX
8
Polygon_1
10
556.4300
20
899.7900
30
0.0
0
SEQEND
0
ENDSEC
0
EOF
