0
SECTION
2
ENTITIES
0
POLYLINE
8
Polygon_2
66
1
70
1
0
VERTEX
8
Polygon_2
10
460.0600
20
140.1100
30
0.0
0
VERTEX
8
Polygon_2
10
526.7300
20
272.8900
30
0.0
0
VERTEX
8
Polygon_2
10
388.9500
20
376.7800
30
0.0
0
VERTEX
8
Polygon_2
10
382.2900
20
442.4400
30
0.0
0
VERTEX
8
Polygon_2
10
362.2900
20
254.2200
30
0.0
0
VERTEX
8
Polygon_2
10
317.8400
20
223.1100
30
0.0
0
SEQEND
0
POLYLINE
8
Polygon_3
66
1
70
1
0
VERTEX
8
Polygon_3
10
362.8400
20
254.2200
30
0.0
0
VERTEX
8
Polygon_3
10
346.7300
20
276.4400
30
0.0
0
VERTEX
8
Polygon_3
10
381.1800
20
463.0000
30
0.0
0
VERTEX
8
Polygon_3
10
383.4000
20
440.7800
30
0.0
0
SEQEND
0
POLYLINE
8
Polygon_4
66
1
70
1
0
VERTEX
8
Polygon_4
10
346.7300
20
276.8900
30
0.0
0
VERTEX
8
Polygon_4
10
381.1800
20
461.3300
30
0.0
0
VERTEX
8
Polygon_4
10
371.1800
20
601.3300
30
0.0
0
VERTEX
8
Polygon_4
10
378.9500
20
637.3300
30
0.0
0
VERTEX
8
Polygon_4
10
295.0600
20
465.1100
30
0.0
0
VERTEX
8
Polygon_4
10
297.2900
20
388.1100
30
0.0
0
VERTEX
8
Polygon_4
10
317.8400
20
379.7800
30
0.0
0
VERTEX
8
Polygon_4
10
317.2900
20
364.7800
30
0.0
0
VERTEX
8
Polygon_4
10
330.0600
20
356.4400
30
0.0
0
VERTEX
8
Polygon_4
10
336.1800
20
315.8900
30
0.0
0
VERTEX
8
Polygon_4
10
329.5100
20
303.1100
30
0.0
0
SEQEND
0
POLYLINE
8
Polygon_5
66
1
70
1
0
VERTEX
8
Polygon_5
10
293.9500
20
464.0000
30
0.0
0
VERTEX
8
Polygon_5
10
289.5100
20
547.8900
30
0.0
0
VERTEX
8
Polygon_5
10
251.7300
20
610.1100
30
0.0
0
VERTEX
8
Polygon_5
10
243.4000
20
615.6700
30
0.0
0
VERTEX
8
Polygon_5
10
314.5100
20
729.8100
30
0.0
0
VERTEX
8
Polygon_5
10
485.6200
20
759.8100
30
0.0
0
VERTEX
8
Polygon_5
10
462.8400
20
719.2500
30
0.0
0
VERTEX
8
Polygon_5
10
475.6200
20
698.6900
30
0.0
0
VERTEX
8
Polygon_5
10
442.2900
20
693.1400
30
0.0
0
VERTEX
8
Polygon_5
10
378.9500
20
638.6900
30
0.0
0
SEQEND
0
POLYLINE
8
Polygon_6
66
1
70
1
0
VERTEX
8
Polygon_6
10
221.7300
20
583.1400
30
0.0
0
VERTEX
8
Polygon_6
10
225.0600
20
577.5800
30
0.0
0
VERTEX
8
Polygon_6
10
397.2900
20
757.0300
30
0.0
0
VERTEX
8
Polygon_6
10
387.2900
20
753.6900
30
0.0
0
SEQEND
0
POLYLINE
8
Polygon_6
66
1
70
1
0
VERTEX
8
Polygon_6
10
318.0800
20
224.1800
30
0.0
0
VERTEX
8
Polygon_6
10
460.3800
20
141.8700
30
0.0
0
VERTEX
8
Polygon_6
10
410.3800
20
21.8700
30
0.0
0
VERTEX
8
Polygon_6
10
282.6900
20
84.9500
30
0.0
0
VERTEX
8
Polygon_6
10
239.6200
20
107.2600
30
0.0
0
VERTEX
8
Polygon_6
10
258.8500
20
129.5600
30
0.0
0
VERTEX
8
Polygon_6
10
267.3100
20
216.4900
30
0.0
0
VERTEX
8
Polygon_6
10
286.5400
20
204.9500
30
0.0
0
SEQEND
0
ENDSEC
0
EOF
