0
SECTION
2
ENTITIES
0
POLYLINE
8
Polygon_1
66
1
70
1
0
VERTEX
8
Polygon_1
10
240.0000
20
104.7900
30
0.0
0
VERTEX
8
Polygon_1
10
410.0000
20
22.1200
30
0.0
0
VERTEX
8
Polygon_1
10
466.0000
20
140.7900
30
0.0
0
VERTEX
8
Polygon_1
10
317.3300
20
226.1200
30
0.0
0
VERTEX
8
Polygon_1
10
285.3300
20
205.4600
30
0.0
0
VERTEX
8
Polygon_1
10
267.3300
20
214.1200
30
0.0
0
VERTEX
8
Polygon_1
10
263.3300
20
134.1200
30
0.0
0
SEQEND
0
POLYLINE
8
Polygon_2
66
1
70
1
0
VERTEX
8
Polygon_2
10
317.3300
20
225.4600
30
0.0
0
VERTEX
8
Polygon_2
10
464.0000
20
144.7900
30
0.0
0
VERTEX
8
Polygon_2
10
528.0000
20
269.4600
30
0.0
0
VERTEX
8
Polygon_2
10
390.0000
20
374.1200
30
0.0
0
VERTEX
8
Polygon_2
10
385.3300
20
444.7900
30
0.0
0
VERTEX
8
Polygon_2
10
364.6700
20
255.4600
30
0.0
0
SEQEND
0
POLYLINE
8
Polygon_3
66
1
70
1
0
VERTEX
8
Polygon_3
10
363.3300
20
254.1200
30
0.0
0
VERTEX
8
Polygon_3
10
347.3300
20
275.4600
30
0.0
0
VERTEX
8
Polygon_3
10
380.6700
20
460.1200
30
0.0
0
VERTEX
8
Polygon_3
10
384.6700
20
442.1200
30
0.0
0
SEQEND
0
POLYLINE
8
Polygon_4
66
1
70
1
0
VERTEX
8
Polygon_4
10
350.0000
20
276.1200
30
0.0
0
VERTEX
8
Polygon_4
10
330.6700
20
306.1200
30
0.0
0
VERTEX
8
Polygon_4
10
338.0000
20
324.1200
30
0.0
0
VERTEX
8
Polygon_4
10
334.0000
20
358.1200
30
0.0
0
VERTEX
8
Polygon_4
10
319.3300
20
362.1200
30
0.0
0
VERTEX
8
Polygon_4
10
315.3300
20
374.7900
30
0.0
0
VERTEX
8
Polygon_4
10
296.6700
20
388.1200
30
0.0
0
VERTEX
8
Polygon_4
10
293.3300
20
465.4600
30
0.0
0
VERTEX
8
Polygon_4
10
376.0000
20
636.1200
30
0.0
0
VERTEX
8
Polygon_4
10
372.6700
20
605.4600
30
0.0
0
VERTEX
8
Polygon_4
10
382.6700
20
464.7900
30
0.0
0
SEQEND
0
POLYLINE
8
Polygon_5
66
1
70
1
0
VERTEX
8
Polygon_5
10
295.3300
20
464.7900
30
0.0
0
VERTEX
8
Polygon_5
10
292.0000
20
548.1200
30
0.0
0
VERTEX
8
Polygon_5
10
246.0000
20
615.4600
30
0.0
0
VERTEX
8
Polygon_5
10
330.0000
20
760.7900
30
0.0
0
VERTEX
8
Polygon_5
10
480.6700
20
755.4600
30
0.0
0
VERTEX
8
Polygon_5
10
460.0000
20
720.1200
30
0.0
0
VERTEX
8
Polygon_5
10
475.3300
20
702.1200
30
0.0
0
VERTEX
8
Polygon_5
10
444.6700
20
695.4600
30
0.0
0
VERTEX
8
Polygon_5
10
377.3300
20
634.7900
30
0.0
0
SEQEND
0
POLYLINE
8
Polygon_6
66
1
70
1
0
VERTEX
8
Polygon_6
10
228.0000
20
578.1200
30
0.0
0
VERTEX
8
Polygon_6
10
397.3300
20
755.4600
30
0.0
0
VERTEX
8
Polygon_6
10
387.3300
20
755.4600
30
0.0
0
VERTEX
8
Polygon_6
10
223.3300
20
584.7900
30
0.0
0
SEQEND
0
ENDSEC
0
EOF
