0
SECTION
2
ENTITIES
0
POLYLINE
8
Polygon_1
66
1
70
1
0
VERTEX
8
Polygon_1
10
550.1900
20
898.3300
30
0.0
0
VERTEX
8
Polygon_1
10
596.8600
20
875.0000
30
0.0
0
VERTEX
8
Polygon_1
10
850.1900
20
781.6700
30
0.0
0
VERTEX
8
Polygon_1
10
940.1900
20
731.6700
30
0.0
0
VERTEX
8
Polygon_1
10
1040.1900
20
821.6700
30
0.0
0
VERTEX
8
Polygon_1
10
1100.1900
20
760.0000
30
0.0
0
VERTEX
8
Polygon_1
10
1273.5300
20
818.3300
30
0.0
0
VERTEX
8
Polygon_1
10
1256.8600
20
888.3300
30
0.0
0
VERTEX
8
Polygon_1
10
1235.1900
20
951.6700
30
0.0
0
VERTEX
8
Polygon_1
10
1221.8600
20
1066.6700
30
0.0
0
VERTEX
8
Polygon_1
10
1138.5300
20
1073.3300
30
0.0
0
VERTEX
8
Polygon_1
10
1108.5300
20
1155.0000
30
0.0
0
VERTEX
8
Polygon_1
10
1113.5300
20
1186.6700
30
0.0
0
VERTEX
8
Polygon_1
10
1145.1900
20
1183.3300
30
0.0
0
VERTEX
8
Polygon_1
10
1195.1900
20
1211.6700
30
0.0
0
VERTEX
8
Polygon_1
10
1246.8600
20
1310.0000
30
0.0
0
VERTEX
8
Polygon_1
10
1118.5300
20
1355.0000
30
0.0
0
VERTEX
8
Polygon_1
10
1085.1900
20
1433.3300
30
0.0
0
VERTEX
8
Polygon_1
10
1033.5300
20
1448.3300
30
0.0
0
VERTEX
8
Polygon_1
10
998.5300
20
1468.3300
30
0.0
0
VERTEX
8
Polygon_1
10
968.5300
20
1468.3300
30
0.0
0
VERTEX
8
Polygon_1
10
901.8600
20
1561.6700
30
0.0
0
VERTEX
8
Polygon_1
10
816.8600
20
1740.3300
30
0.0
0
VERTEX
8
Polygon_1
10
681.8600
20
1812.0000
30
0.0
0
VERTEX
8
Polygon_1
10
673.5300
20
1738.6700
30
0.0
0
VERTEX
8
Polygon_1
10
676.8600
20
1637.0000
30
0.0
0
VERTEX
8
Polygon_1
10
730.1900
20
1603.6700
30
0.0
0
VERTEX
8
Polygon_1
10
756.8600
20
1538.6700
30
0.0
0
VERTEX
8
Polygon_1
10
786.8600
20
1503.6700
30
0.0
0
VERTEX
8
Polygon_1
10
743.5300
20
1447.0000
30
0.0
0
VERTEX
8
Polygon_1
10
758.5300
20
1408.6700
30
0.0
0
VERTEX
8
Polygon_1
10
738.5300
20
1368.6700
30
0.0
0
VERTEX
8
Polygon_1
10
648.5300
20
1373.6700
30
0.0
0
VERTEX
8
Polygon_1
10
566.8600
20
1283.6700
30
0.0
0
VERTEX
8
Polygon_1
10
558.5300
20
1121.0000
30
0.0
0
VERTEX
8
Polygon_1
10
510.1900
20
987.6700
30
0.0
0
SEQEND
0
ENDSEC
0
EOF
