0
SECTION
2
ENTITIES
0
POLYLINE
8
Polygon_1
66
1
70
1
0
VERTEX
8
Polygon_1
10
1273.2300
20
815.2000
30
0.0
0
VERTEX
8
Polygon_1
10
1257.2300
20
885.2000
30
0.0
0
VERTEX
8
Polygon_1
10
1233.2300
20
957.2000
30
0.0
0
VERTEX
8
Polygon_1
10
1223.2300
20
1063.2000
30
0.0
0
VERTEX
8
Polygon_1
10
1135.2300
20
1067.2000
30
0.0
0
VERTEX
8
Polygon_1
10
1105.2300
20
1157.2000
30
0.0
0
VERTEX
8
Polygon_1
10
1115.2300
20
1189.2000
30
0.0
0
VERTEX
8
Polygon_1
10
1143.2300
20
1185.2000
30
0.0
0
VERTEX
8
Polygon_1
10
1195.2300
20
1209.2000
30
0.0
0
VERTEX
8
Polygon_1
10
1247.2300
20
1309.2000
30
0.0
0
VERTEX
8
Polygon_1
10
1119.2300
20
1357.2000
30
0.0
0
VERTEX
8
Polygon_1
10
1083.2300
20
1437.2000
30
0.0
0
VERTEX
8
Polygon_1
10
1031.2300
20
1447.2000
30
0.0
0
VERTEX
8
Polygon_1
10
1015.2300
20
1471.2000
30
0.0
0
VERTEX
8
Polygon_1
10
959.2300
20
1467.2000
30
0.0
0
VERTEX
8
Polygon_1
10
903.2300
20
1561.2000
30
0.0
0
VERTEX
8
Polygon_1
10
829.2300
20
1733.5000
30
0.0
0
VERTEX
8
Polygon_1
10
677.2300
20
1813.5000
30
0.0
0
VERTEX
8
Polygon_1
10
669.2300
20
1741.5000
30
0.0
0
VERTEX
8
Polygon_1
10
671.2300
20
1655.5000
30
0.0
0
VERTEX
8
Polygon_1
10
729.2300
20
1611.5000
30
0.0
0
VERTEX
8
Polygon_1
10
757.2300
20
1543.5000
30
0.0
0
VERTEX
8
Polygon_1
10
791.2300
20
1511.5000
30
0.0
0
VERTEX
8
Polygon_1
10
743.2300
20
1445.5000
30
0.0
0
VERTEX
8
Polygon_1
10
757.2300
20
1399.5000
30
0.0
0
VERTEX
8
Polygon_1
10
739.2300
20
1371.5000
30
0.0
0
VERTEX
8
Polygon_1
10
633.2300
20
1371.5000
30
0.0
0
VERTEX
8
Polygon_1
10
567.2300
20
1280.3000
30
0.0
0
VERTEX
8
Polygon_1
10
555.2300
20
1186.3000
30
0.0
0
VERTEX
8
Polygon_1
10
559.2300
20
1138.3000
30
0.0
0
VERTEX
8
Polygon_1
10
557.2300
20
1106.3000
30
0.0
0
VERTEX
8
Polygon_1
10
519.2300
20
994.3000
30
0.0
0
VERTEX
8
Polygon_1
10
551.2300
20
900.3000
30
0.0
0
VERTEX
8
Polygon_1
10
599.2300
20
872.3000
30
0.0
0
VERTEX
8
Polygon_1
10
845.2300
20
788.3000
30
0.0
0
VERTEX
8
Polygon_1
10
939.2300
20
732.3000
30
0.0
0
VERTEX
8
Polygon_1
10
1043.2300
20
822.3000
30
0.0
0
VERTEX
8
Polygon_1
10
1105.2300
20
756.3000
30
0.0
0
SEQEND
0
ENDSEC
0
EOF
