0
SECTION
2
ENTITIES
0
POLYLINE
8
LoteJimmy
66
1
70
1
0
VERTEX
8
LoteJimmy
10
344.6000
20
321.9300
30
0.0
0
VERTEX
8
LoteJimmy
10
295.2700
20
329.6700
30
0.0
0
VERTEX
8
LoteJimmy
10
223.5300
20
362.2200
30
0.0
0
VERTEX
8
LoteJimmy
10
188.8700
20
370.8900
30
0.0
0
VERTEX
8
LoteJimmy
10
156.8700
20
479.5600
30
0.0
0
VERTEX
8
LoteJimmy
10
146.2000
20
498.8900
30
0.0
0
VERTEX
8
LoteJimmy
10
301.5300
20
512.2200
30
0.0
0
VERTEX
8
LoteJimmy
10
304.8700
20
422.8900
30
0.0
0
VERTEX
8
LoteJimmy
10
297.2700
20
404.3300
30
0.0
0
VERTEX
8
LoteJimmy
10
299.9300
20
380.3300
30
0.0
0
SEQEND
0
POLYLINE
8
LotePedro
66
1
70
1
0
VERTEX
8
LotePedro
10
301.5300
20
512.2200
30
0.0
0
VERTEX
8
LotePedro
10
310.1300
20
546.5600
30
0.0
0
VERTEX
8
LotePedro
10
336.6000
20
586.5600
30
0.0
0
VERTEX
8
LotePedro
10
366.6000
20
619.2200
30
0.0
0
VERTEX
8
LotePedro
10
376.6000
20
636.5600
30
0.0
0
VERTEX
8
LotePedro
10
378.6000
20
648.5600
30
0.0
0
VERTEX
8
LotePedro
10
275.9300
20
605.2200
30
0.0
0
VERTEX
8
LotePedro
10
235.9300
20
594.5600
30
0.0
0
VERTEX
8
LotePedro
10
155.5000
20
582.4800
30
0.0
0
VERTEX
8
LotePedro
10
126.5000
20
559.4800
30
0.0
0
VERTEX
8
LotePedro
10
129.5000
20
516.9800
30
0.0
0
VERTEX
8
LotePedro
10
146.2000
20
498.8900
30
0.0
0
SEQEND
0
POLYLINE
8
LoteNacho
66
1
70
1
0
VERTEX
8
LoteNacho
10
378.6000
20
648.5600
30
0.0
0
VERTEX
8
LoteNacho
10
376.6000
20
636.5600
30
0.0
0
VERTEX
8
LoteNacho
10
366.6000
20
619.2200
30
0.0
0
VERTEX
8
LoteNacho
10
336.6000
20
586.5600
30
0.0
0
VERTEX
8
LoteNacho
10
310.1300
20
546.5600
30
0.0
0
VERTEX
8
LoteNacho
10
301.5300
20
512.2200
30
0.0
0
VERTEX
8
LoteNacho
10
304.8700
20
422.8900
30
0.0
0
VERTEX
8
LoteNacho
10
297.2700
20
404.3300
30
0.0
0
VERTEX
8
LoteNacho
10
299.9300
20
380.3300
30
0.0
0
VERTEX
8
LoteNacho
10
344.6000
20
321.9300
30
0.0
0
VERTEX
8
LoteNacho
10
416.8700
20
310.2300
30
0.0
0
VERTEX
8
LoteNacho
10
492.2700
20
342.3000
30
0.0
0
VERTEX
8
LoteNacho
10
462.0400
20
656.3600
30
0.0
0
VERTEX
8
LoteNacho
10
445.7900
20
665.5600
30
0.0
0
SEQEND
0
ENDSEC
0
EOF
