0
SECTION
2
ENTITIES
0
POLYLINE
8
Lote_7
66
1
70
1
0
VERTEX
8
Lote_7
10
461.3900
20
141.8100
30
0.0
0
VERTEX
8
Lote_7
10
525.8300
20
273.8100
30
0.0
0
VERTEX
8
Lote_7
10
388.9500
20
376.7800
30
0.0
0
VERTEX
8
Lote_7
10
383.3900
20
441.8100
30
0.0
0
VERTEX
8
Lote_7
10
362.2500
20
254.8400
30
0.0
0
VERTEX
8
Lote_7
10
318.8800
20
224.4600
30
0.0
0
SEQEND
0
POLYLINE
8
Lote_6
66
1
70
1
0
VERTEX
8
Lote_6
10
362.2500
20
254.8400
30
0.0
0
VERTEX
8
Lote_6
10
347.2500
20
276.3400
30
0.0
0
VERTEX
8
Lote_6
10
381.1800
20
463.0000
30
0.0
0
VERTEX
8
Lote_6
10
383.3900
20
441.8100
30
0.0
0
SEQEND
0
POLYLINE
8
Lote_5
66
1
70
1
0
VERTEX
8
Lote_5
10
347.2500
20
276.3400
30
0.0
0
VERTEX
8
Lote_5
10
381.1800
20
463.0000
30
0.0
0
VERTEX
8
Lote_5
10
371.1800
20
601.3300
30
0.0
0
VERTEX
8
Lote_5
10
378.9500
20
637.3300
30
0.0
0
VERTEX
8
Lote_5
10
294.8800
20
466.5900
30
0.0
0
VERTEX
8
Lote_5
10
299.5000
20
389.4600
30
0.0
0
VERTEX
8
Lote_5
10
316.1300
20
378.0900
30
0.0
0
VERTEX
8
Lote_5
10
318.5000
20
365.8400
30
0.0
0
VERTEX
8
Lote_5
10
329.1300
20
355.9600
30
0.0
0
VERTEX
8
Lote_5
10
336.5000
20
318.2100
30
0.0
0
VERTEX
8
Lote_5
10
328.3800
20
302.5900
30
0.0
0
SEQEND
0
POLYLINE
8
Lote_4
66
1
70
1
0
VERTEX
8
Lote_4
10
294.8800
20
466.5900
30
0.0
0
VERTEX
8
Lote_4
10
289.2500
20
548.8400
30
0.0
0
VERTEX
8
Lote_4
10
247.6300
20
614.3400
30
0.0
0
VERTEX
8
Lote_4
10
314.5100
20
729.8100
30
0.0
0
VERTEX
8
Lote_4
10
484.3900
20
760.8100
30
0.0
0
VERTEX
8
Lote_4
10
462.8400
20
719.2500
30
0.0
0
VERTEX
8
Lote_4
10
475.6200
20
698.6900
30
0.0
0
VERTEX
8
Lote_4
10
442.2900
20
693.1400
30
0.0
0
VERTEX
8
Lote_4
10
378.9500
20
637.3300
30
0.0
0
SEQEND
0
POLYLINE
8
Camino
66
1
70
1
0
VERTEX
8
Camino
10
221.8300
20
581.8100
30
0.0
0
VERTEX
8
Camino
10
225.0600
20
577.5800
30
0.0
0
VERTEX
8
Camino
10
397.2900
20
757.0300
30
0.0
0
VERTEX
8
Camino
10
387.2900
20
753.6900
30
0.0
0
SEQEND
0
POLYLINE
8
Lote_8
66
1
70
1
0
VERTEX
8
Lote_8
10
318.8800
20
224.4600
30
0.0
0
VERTEX
8
Lote_8
10
461.3900
20
141.8100
30
0.0
0
VERTEX
8
Lote_8
10
410.3800
20
21.8700
30
0.0
0
VERTEX
8
Lote_8
10
283.0000
20
86.4600
30
0.0
0
VERTEX
8
Lote_8
10
239.6300
20
107.9600
30
0.0
0
VERTEX
8
Lote_8
10
258.1300
20
130.9600
30
0.0
0
VERTEX
8
Lote_8
10
267.2500
20
216.7100
30
0.0
0
VERTEX
8
Lote_8
10
290.7500
20
204.9600
30
0.0
0
SEQEND
0
ENDSEC
0
EOF
