0
SECTION
2
ENTITIES
0
POLYLINE
8
LoteJimmy
66
1
70
1
0
VERTEX
8
LoteJimmy
10
344.6000
20
321.9300
30
0.0
0
VERTEX
8
LoteJimmy
10
295.5000
20
329.1500
30
0.0
0
VERTEX
8
LoteJimmy
10
224.0000
20
362.6500
30
0.0
0
VERTEX
8
LoteJimmy
10
189.0000
20
371.6500
30
0.0
0
VERTEX
8
LoteJimmy
10
156.8700
20
479.5600
30
0.0
0
VERTEX
8
LoteJimmy
10
146.7500
20
498.2800
30
0.0
0
VERTEX
8
LoteJimmy
10
301.0000
20
513.2200
30
0.0
0
VERTEX
8
LoteJimmy
10
304.5000
20
425.1500
30
0.0
0
VERTEX
8
LoteJimmy
10
296.2500
20
406.1500
30
0.0
0
VERTEX
8
LoteJimmy
10
299.0000
20
385.0300
30
0.0
0
VERTEX
8
LoteJimmy
10
314.3800
20
359.6500
30
0.0
0
SEQEND
0
POLYLINE
8
LotePedro
66
1
70
1
0
VERTEX
8
LotePedro
10
301.0000
20
513.2200
30
0.0
0
VERTEX
8
LotePedro
10
310.1300
20
546.5600
30
0.0
0
VERTEX
8
LotePedro
10
336.6000
20
586.5600
30
0.0
0
VERTEX
8
LotePedro
10
365.8800
20
619.1500
30
0.0
0
VERTEX
8
LotePedro
10
376.6000
20
636.5600
30
0.0
0
VERTEX
8
LotePedro
10
375.1900
20
646.5300
30
0.0
0
VERTEX
8
LotePedro
10
367.9400
20
644.4700
30
0.0
0
VERTEX
8
LotePedro
10
342.1200
20
634.5500
30
0.0
0
VERTEX
8
LotePedro
10
313.0200
20
622.3500
30
0.0
0
VERTEX
8
LotePedro
10
275.3100
20
605.6700
30
0.0
0
VERTEX
8
LotePedro
10
235.9400
20
594.0300
30
0.0
0
VERTEX
8
LotePedro
10
154.7000
20
581.5100
30
0.0
0
VERTEX
8
LotePedro
10
126.5000
20
559.4800
30
0.0
0
VERTEX
8
LotePedro
10
129.5000
20
516.9800
30
0.0
0
VERTEX
8
LotePedro
10
146.7500
20
498.2800
30
0.0
0
SEQEND
0
POLYLINE
8
LoteNacho
66
1
70
0
0
VERTEX
8
LoteNacho
10
443.9400
20
664.6500
30
0.0
0
VERTEX
8
LoteNacho
10
375.1900
20
646.5300
30
0.0
0
VERTEX
8
LoteNacho
10
376.6000
20
636.5600
30
0.0
0
VERTEX
8
LoteNacho
10
365.8800
20
619.1500
30
0.0
0
VERTEX
8
LoteNacho
10
336.6000
20
586.5600
30
0.0
0
VERTEX
8
LoteNacho
10
310.1300
20
546.5600
30
0.0
0
VERTEX
8
LoteNacho
10
301.0000
20
513.2200
30
0.0
0
VERTEX
8
LoteNacho
10
304.5000
20
425.1500
30
0.0
0
VERTEX
8
LoteNacho
10
296.2500
20
406.1500
30
0.0
0
VERTEX
8
LoteNacho
10
299.0000
20
385.0300
30
0.0
0
VERTEX
8
LoteNacho
10
314.3800
20
359.6500
30
0.0
0
VERTEX
8
LoteNacho
10
344.6000
20
321.9300
30
0.0
0
VERTEX
8
LoteNacho
10
352.4300
20
323.5500
30
0.0
0
VERTEX
8
LoteNacho
10
402.7400
20
313.3900
30
0.0
0
SEQEND
0
ENDSEC
0
EOF
