0
SECTION
2
ENTITIES
0
POLYLINE
8
Lote8
66
1
70
1
0
VERTEX
8
Lote8
10
240.320
20
398.700
30
0.0
0
VERTEX
8
Lote8
10
241.210
20
385.670
30
0.0
0
VERTEX
8
Lote8
10
224.020
20
356.480
30
0.0
0
VERTEX
8
Lote8
10
234.690
20
355.150
30
0.0
0
VERTEX
8
Lote8
10
239.430
20
341.220
30
0.0
0
VERTEX
8
Lote8
10
305.360
20
334.850
30
0.0
0
VERTEX
8
Lote8
10
316.320
20
388.190
30
0.0
0
SEQEND
0
POLYLINE
8
Lote7
66
1
70
1
0
VERTEX
8
Lote7
10
239.430
20
341.570
30
0.0
0
VERTEX
8
Lote7
10
305.430
20
335.170
30
0.0
0
VERTEX
8
Lote7
10
296.030
20
275.170
30
0.0
0
VERTEX
8
Lote7
10
226.630
20
272.770
30
0.0
0
VERTEX
8
Lote7
10
210.430
20
252.770
30
0.0
0
VERTEX
8
Lote7
10
245.830
20
320.770
30
0.0
0
SEQEND
0
POLYLINE
8
Lote6
66
1
70
1
0
VERTEX
8
Lote6
10
237.230
20
317.570
30
0.0
0
VERTEX
8
Lote6
10
245.830
20
320.970
30
0.0
0
VERTEX
8
Lote6
10
210.430
20
253.170
30
0.0
0
VERTEX
8
Lote6
10
205.030
20
247.570
30
0.0
0
SEQEND
0
POLYLINE
8
Lote5
66
1
70
1
0
VERTEX
8
Lote5
10
161.390
20
187.830
30
0.0
0
VERTEX
8
Lote5
10
167.390
20
201.830
30
0.0
0
VERTEX
8
Lote5
10
205.680
20
247.550
30
0.0
0
VERTEX
8
Lote5
10
236.960
20
317.740
30
0.0
0
VERTEX
8
Lote5
10
224.290
20
313.410
30
0.0
0
VERTEX
8
Lote5
10
224.290
20
306.740
30
0.0
0
VERTEX
8
Lote5
10
213.390
20
294.920
30
0.0
0
VERTEX
8
Lote5
10
205.960
20
294.410
30
0.0
0
VERTEX
8
Lote5
10
203.680
20
290.630
30
0.0
0
VERTEX
8
Lote5
10
195.620
20
291.070
30
0.0
0
VERTEX
8
Lote5
10
173.620
20
265.070
30
0.0
0
SEQEND
0
POLYLINE
8
Lote4
66
1
70
1
0
VERTEX
8
Lote4
10
173.960
20
265.550
30
0.0
0
VERTEX
8
Lote4
10
153.960
20
238.520
30
0.0
0
VERTEX
8
Lote4
10
127.390
20
228.230
30
0.0
0
VERTEX
8
Lote4
10
137.390
20
145.660
30
0.0
0
VERTEX
8
Lote4
10
154.820
20
135.660
30
0.0
0
VERTEX
8
Lote4
10
156.820
20
141.660
30
0.0
0
VERTEX
8
Lote4
10
161.680
20
147.660
30
0.0
0
VERTEX
8
Lote4
10
168.250
20
153.950
30
0.0
0
VERTEX
8
Lote4
10
161.390
20
187.380
30
0.0
0
SEQEND
0
POLYLINE
8
Lote2
66
1
70
1
0
VERTEX
8
Lote2
10
123.680
20
226.520
30
0.0
0
VERTEX
8
Lote2
10
118.530
20
175.090
30
0.0
0
VERTEX
8
Lote2
10
137.960
20
144.800
30
0.0
0
VERTEX
8
Lote2
10
127.390
20
228.520
30
0.0
0
SEQEND
0
POLYLINE
8
Entrada
66
1
70
1
0
VERTEX
8
Entrada
10
125.170
20
235.510
30
0.0
0
VERTEX
8
Entrada
10
154.530
20
166.490
30
0.0
0
VERTEX
8
Entrada
10
152.170
20
164.990
30
0.0
0
VERTEX
8
Entrada
10
123.970
20
233.310
30
0.0
0
SEQEND
0
ENDSEC
0
EOF
