0
SECTION
2
ENTITIES
0
POLYLINE
8
LoteJimmy
66
1
70
1
0
VERTEX
8
LoteJimmy
10
4644954.7296
20
1943374.3258
30
0.0
0
VERTEX
8
LoteJimmy
10
4644939.8716
20
1943376.4133
30
0.0
0
VERTEX
8
LoteJimmy
10
4644914.0818
20
1943371.2840
30
0.0
0
VERTEX
8
LoteJimmy
10
4644902.7709
20
1943371.3859
30
0.0
0
VERTEX
8
LoteJimmy
10
4644874.3104
20
1943336.3444
30
0.0
0
VERTEX
8
LoteJimmy
10
4644868.2163
20
1943330.8522
30
0.0
0
VERTEX
8
LoteJimmy
10
4644908.1063
20
1943311.1026
30
0.0
0
VERTEX
8
LoteJimmy
10
4644924.9573
20
1943341.6695
30
0.0
0
VERTEX
8
LoteJimmy
10
4644926.1106
20
1943349.1513
30
0.0
0
VERTEX
8
LoteJimmy
10
4644930.7046
20
1943356.3312
30
0.0
0
VERTEX
8
LoteJimmy
10
4644939.5563
20
1943363.8292
30
0.0
0
SEQEND
0
POLYLINE
8
LotePedro
66
1
70
1
0
VERTEX
8
LotePedro
10
4644908.1063
20
1943311.1026
30
0.0
0
VERTEX
8
LotePedro
10
4644904.6771
20
1943298.3329
30
0.0
0
VERTEX
8
LotePedro
10
4644904.7195
20
1943281.8083
30
0.0
0
VERTEX
8
LotePedro
10
4644906.7843
20
1943267.5805
30
0.0
0
VERTEX
8
LotePedro
10
4644906.4792
20
1943260.4024
30
0.0
0
VERTEX
8
LotePedro
10
4644904.2033
20
1943257.0071
30
0.0
0
VERTEX
8
LotePedro
10
4644902.4967
20
1943258.3832
30
0.0
0
VERTEX
8
LotePedro
10
4644897.1333
20
1943264.2565
30
0.0
0
VERTEX
8
LotePedro
10
4644891.2991
20
1943271.2591
30
0.0
0
VERTEX
8
LotePedro
10
4644883.9309
20
1943280.6378
30
0.0
0
VERTEX
8
LotePedro
10
4644875.1798
20
1943288.3176
30
0.0
0
VERTEX
8
LotePedro
10
4644855.0353
20
1943300.3590
30
0.0
0
VERTEX
8
LotePedro
10
4644851.2417
20
1943311.0171
30
0.0
0
VERTEX
8
LotePedro
10
4644859.8372
20
1943325.8259
30
0.0
0
VERTEX
8
LotePedro
10
4644868.2163
20
1943330.8522
30
0.0
0
SEQEND
0
POLYLINE
8
LoteNacho
66
1
70
0
0
VERTEX
8
LoteNacho
10
4644919.8392
20
1943244.2278
30
0.0
0
VERTEX
8
LoteNacho
10
4644904.1855
20
1943257.0418
30
0.0
0
VERTEX
8
LoteNacho
10
4644906.3850
20
1943260.4245
30
0.0
0
VERTEX
8
LoteNacho
10
4644906.5933
20
1943267.5638
30
0.0
0
VERTEX
8
LoteNacho
10
4644904.4444
20
1943281.7891
30
0.0
0
VERTEX
8
LoteNacho
10
4644904.4159
20
1943298.3638
30
0.0
0
VERTEX
8
LoteNacho
10
4644907.9559
20
1943310.9700
30
0.0
0
VERTEX
8
LoteNacho
10
4644924.9174
20
1943341.6884
30
0.0
0
VERTEX
8
LoteNacho
10
4644926.0952
20
1943349.1573
30
0.0
0
VERTEX
8
LoteNacho
10
4644930.6893
20
1943356.3453
30
0.0
0
VERTEX
8
LoteNacho
10
4644939.5375
20
1943363.8543
30
0.0
0
VERTEX
8
LoteNacho
10
4644954.7165
20
1943374.3262
30
0.0
0
VERTEX
8
LoteNacho
10
4644956.5799
20
1943373.0232
30
0.0
0
VERTEX
8
LoteNacho
10
4644972.2890
20
1943371.9019
30
0.0
0
SEQEND
0
ENDSEC
0
EOF
