0
SECTION
2
ENTITIES
0
POLYLINE
8
RECTIFIED_296
66
1
70
1
0
VERTEX
8
RECTIFIED_296
10
1097976.2263
20
877280.0689
30
0.0
0
VERTEX
8
RECTIFIED_296
10
1098031.5253
20
877220.1483
30
0.0
0
VERTEX
8
RECTIFIED_296
10
1098073.7651
20
877252.8023
30
0.0
0
VERTEX
8
RECTIFIED_296
10
1098176.8084
20
877207.2154
30
0.0
0
VERTEX
8
RECTIFIED_296
10
1098168.2114
20
877167.3821
30
0.0
0
VERTEX
8
RECTIFIED_296
10
1098153.2630
20
877128.3467
30
0.0
0
VERTEX
8
RECTIFIED_296
10
1098133.3088
20
877064.3147
30
0.0
0
VERTEX
8
RECTIFIED_296
10
1098084.8089
20
877065.2521
30
0.0
0
VERTEX
8
RECTIFIED_296
10
1098060.9688
20
877036.1389
30
0.0
0
VERTEX
8
RECTIFIED_296
10
1098032.8304
20
877008.6934
30
0.0
0
VERTEX
8
RECTIFIED_296
10
1098025.3733
20
876991.5656
30
0.0
0
VERTEX
8
RECTIFIED_296
10
1098039.8823
20
876986.6095
30
0.0
0
VERTEX
8
RECTIFIED_296
10
1098048.0483
20
876940.1542
30
0.0
0
VERTEX
8
RECTIFIED_296
10
1098063.3817
20
876869.9101
30
0.0
0
VERTEX
8
RECTIFIED_296
10
1097999.7614
20
876854.5524
30
0.0
0
VERTEX
8
RECTIFIED_296
10
1097969.3082
20
876804.3866
30
0.0
0
VERTEX
8
RECTIFIED_296
10
1097948.2075
20
876801.6402
30
0.0
0
VERTEX
8
RECTIFIED_296
10
1097931.1471
20
876793.3011
30
0.0
0
VERTEX
8
RECTIFIED_296
10
1097920.8865
20
876793.7886
30
0.0
0
VERTEX
8
RECTIFIED_296
10
1097901.8078
20
876798.6565
30
0.0
0
VERTEX
8
RECTIFIED_296
10
1097848.4492
20
876751.3049
30
0.0
0
VERTEX
8
RECTIFIED_296
10
1097794.9537
20
876702.5102
30
0.0
0
VERTEX
8
RECTIFIED_296
10
1097785.4999
20
876696.1675
30
0.0
0
VERTEX
8
RECTIFIED_296
10
1097762.5504
20
876690.4767
30
0.0
0
VERTEX
8
RECTIFIED_296
10
1097694.2370
20
876670.0057
30
0.0
0
VERTEX
8
RECTIFIED_296
10
1097710.6406
20
876722.5689
30
0.0
0
VERTEX
8
RECTIFIED_296
10
1097699.9251
20
876760.0729
30
0.0
0
VERTEX
8
RECTIFIED_296
10
1097736.5796
20
876775.7761
30
0.0
0
VERTEX
8
RECTIFIED_296
10
1097760.6045
20
876808.2037
30
0.0
0
VERTEX
8
RECTIFIED_296
10
1097790.3458
20
876822.4339
30
0.0
0
VERTEX
8
RECTIFIED_296
10
1097785.7938
20
876860.2644
30
0.0
0
VERTEX
8
RECTIFIED_296
10
1097809.9893
20
876880.0314
30
0.0
0
VERTEX
8
RECTIFIED_296
10
1097810.2479
20
876898.4433
30
0.0
0
VERTEX
8
RECTIFIED_296
10
1097756.5902
20
876904.6668
30
0.0
0
VERTEX
8
RECTIFIED_296
10
1097720.5309
20
876998.6523
30
0.0
0
VERTEX
8
RECTIFIED_296
10
1097718.1667
20
877061.5220
30
0.0
0
VERTEX
8
RECTIFIED_296
10
1097729.9962
20
877082.1324
30
0.0
0
VERTEX
8
RECTIFIED_296
10
1097735.1790
20
877104.0676
30
0.0
0
VERTEX
8
RECTIFIED_296
10
1097720.7533
20
877154.6741
30
0.0
0
VERTEX
8
RECTIFIED_296
10
1097745.6405
20
877200.7160
30
0.0
0
VERTEX
8
RECTIFIED_296
10
1097774.7067
20
877210.8077
30
0.0
0
VERTEX
8
RECTIFIED_296
10
1097921.0531
20
877251.0984
30
0.0
0
SEQEND
0
POLYLINE
8
RECTIFIED_1073
66
1
70
1
0
VERTEX
8
RECTIFIED_1073
10
1098238.7596
20
876898.3620
30
0.0
0
VERTEX
8
RECTIFIED_1073
10
1098205.4151
20
876742.4559
30
0.0
0
VERTEX
8
RECTIFIED_1073
10
1098003.8605
20
876750.7214
30
0.0
0
VERTEX
8
RECTIFIED_1073
10
1097954.4687
20
876709.5128
30
0.0
0
VERTEX
8
RECTIFIED_1073
10
1098062.9550
20
876869.2947
30
0.0
0
VERTEX
8
RECTIFIED_1073
10
1098047.1906
20
876941.8122
30
0.0
0
SEQEND
0
POLYLINE
8
RECTIFIED_1073
66
1
70
1
0
VERTEX
8
RECTIFIED_1073
10
1098063.4437
20
876868.8118
30
0.0
0
VERTEX
8
RECTIFIED_1073
10
1098033.9484
20
876862.4275
30
0.0
0
VERTEX
8
RECTIFIED_1073
10
1097938.1423
20
876696.7027
30
0.0
0
VERTEX
8
RECTIFIED_1073
10
1097954.2480
20
876709.2897
30
0.0
0
SEQEND
0
POLYLINE
8
RECTIFIED_1073
66
1
70
1
0
VERTEX
8
RECTIFIED_1073
10
1098034.6667
20
876862.7130
30
0.0
0
VERTEX
8
RECTIFIED_1073
10
1097939.2480
20
876697.8221
30
0.0
0
VERTEX
8
RECTIFIED_1073
10
1097841.6938
20
876611.7015
30
0.0
0
VERTEX
8
RECTIFIED_1073
10
1097830.7368
20
876584.3965
30
0.0
0
VERTEX
8
RECTIFIED_1073
10
1097848.3145
20
876751.0144
30
0.0
0
VERTEX
8
RECTIFIED_1073
10
1097909.0146
20
876806.3217
30
0.0
0
VERTEX
8
RECTIFIED_1073
10
1097933.6931
20
876802.4428
30
0.0
0
VERTEX
8
RECTIFIED_1073
10
1097944.6097
20
876810.5622
30
0.0
0
VERTEX
8
RECTIFIED_1073
10
1097961.2995
20
876810.2593
30
0.0
0
VERTEX
8
RECTIFIED_1073
10
1097997.0742
20
876834.5824
30
0.0
0
VERTEX
8
RECTIFIED_1073
10
1097999.7419
20
876854.4942
30
0.0
0
SEQEND
0
POLYLINE
8
RECTIFIED_1073
66
1
70
1
0
VERTEX
8
RECTIFIED_1073
10
1097848.4694
20
876751.7186
30
0.0
0
VERTEX
8
RECTIFIED_1073
10
1097785.5984
20
876696.0775
30
0.0
0
VERTEX
8
RECTIFIED_1073
10
1097697.3062
20
876670.9215
30
0.0
0
VERTEX
8
RECTIFIED_1073
10
1097710.8515
20
876561.5332
30
0.0
0
VERTEX
8
RECTIFIED_1073
10
1097874.9448
20
876445.3377
30
0.0
0
VERTEX
8
RECTIFIED_1073
10
1097876.7156
20
876484.7600
30
0.0
0
VERTEX
8
RECTIFIED_1073
10
1097900.9570
20
876489.9427
30
0.0
0
VERTEX
8
RECTIFIED_1073
10
1097869.7401
20
876513.3171
30
0.0
0
VERTEX
8
RECTIFIED_1073
10
1097830.0225
20
876583.5452
30
0.0
0
SEQEND
0
POLYLINE
8
RECTIFIED_1073
66
1
70
1
0
VERTEX
8
RECTIFIED_1073
10
1097692.0282
20
876710.0128
30
0.0
0
VERTEX
8
RECTIFIED_1073
10
1097698.1037
20
876711.2360
30
0.0
0
VERTEX
8
RECTIFIED_1073
10
1097787.9490
20
876499.3184
30
0.0
0
VERTEX
8
RECTIFIED_1073
10
1097779.2338
20
876507.1871
30
0.0
0
SEQEND
0
POLYLINE
8
RECTIFIED_1073
66
1
70
1
0
VERTEX
8
RECTIFIED_1073
10
1098047.2245
20
876941.1437
30
0.0
0
VERTEX
8
RECTIFIED_1073
10
1098237.8835
20
876898.5684
30
0.0
0
VERTEX
8
RECTIFIED_1073
10
1098288.6666
20
877028.0800
30
0.0
0
VERTEX
8
RECTIFIED_1073
10
1098134.7109
20
877064.0901
30
0.0
0
VERTEX
8
RECTIFIED_1073
10
1098085.3814
20
877065.3297
30
0.0
0
VERTEX
8
RECTIFIED_1073
10
1098078.9694
20
877045.1454
30
0.0
0
VERTEX
8
RECTIFIED_1073
10
1098011.9823
20
876989.7214
30
0.0
0
VERTEX
8
RECTIFIED_1073
10
1098039.6670
20
876986.4555
30
0.0
0
SEQEND
0
ENDSEC
0
EOF
